STARTFONT 2.1
FONT -HP-Pilgi-Bold-R-Normal--48-480-75-75-C-240-KSC5636.1989-0
SIZE 48 75 75
FONTBOUNDINGBOX 24 48 0 -6

STARTPROPERTIES 23
FONTNAME_REGISTRY ""
FOUNDRY "HP"
FAMILY_NAME "Pilgi"
WEIGHT_NAME "Bold"
SLANT "R"
SETWIDTH_NAME "Normal"
ADD_STYLE_NAME ""
PIXEL_SIZE 48
POINT_SIZE 480
RESOLUTION_X 75
RESOLUTION_Y 75
SPACING "C"
AVERAGE_WIDTH 240
CHARSET_REGISTRY "KSC5636.1989"
CHARSET_ENCODING "0"
COPYRIGHT "Copyright (c) 1994 Samsung Hewlett-Packard Company."
WEIGHT 200
X_HEIGHT 42
QUAD_WIDTH 24
_HP_ASXVERSION "@(#) ASX 3.00 $Revision: 13.9 $ pilB48a"
DEFAULT_CHAR 32
FONT_DESCENT 6
FONT_ASCENT 42
ENDPROPERTIES

CHARS 256

STARTCHAR CODE000
ENCODING 0
SWIDTH 451 0
DWIDTH 24 0
BBX 24 48 0 -6
BITMAP
000000
000000
000000
000000
000000
000000
000000
000000
000000
000000
000000
000000
000000
000000
000000
000000
000000
000000
000000
000000
000000
000000
000000
000000
000000
000000
000000
000000
000000
000000
000000
000000
000000
000000
000000
000000
000000
000000
000000
000000
000000
000000
000000
000000
000000
000000
000000
000000
ENDCHAR

STARTCHAR CODE001
ENCODING 1
SWIDTH 451 0
DWIDTH 24 0
BBX 24 48 0 -6
BITMAP
000000
000000
000000
00FF00
03FFC0
07C3E0
0F00F0
1E0078
1C0038
38001C
38001C
70000E
7381CE
67C3E6
E7C3E7
E7C3E7
E7C3E7
C381C3
C00003
C00003
C00003
C00003
CC0033
CC0033
EE0077
EE0077
E700E7
67C3E6
73FFCE
71FF8E
387E1C
38001C
1C0038
1E0078
0F00F0
07C3E0
03FFC0
00FF00
000000
000000
000000
000000
000000
000000
000000
000000
000000
000000
ENDCHAR

STARTCHAR CODE002
ENCODING 2
SWIDTH 451 0
DWIDTH 24 0
BBX 24 48 0 -6
BITMAP
000000
000000
000000
00FF00
03FFC0
07FFE0
0FFFF0
1FFFF8
1FFFF8
3FFFFC
3FFFFC
7FFFFE
7FFFFE
7EFF7E
FC7E3F
FC7E3F
FEFF7F
FFFFFF
FFFFFF
FFFFFF
FFFFFF
FFFFFF
FFFFFF
FFFFFF
FFFFFF
FFFFFF
FFFFFF
7FFFFE
7F7EFE
7FC3FE
3FFFFC
3FFFFC
1FFFF8
1FFFF8
0FFFF0
07FFE0
03FFC0
00FF00
000000
000000
000000
000000
000000
000000
000000
000000
000000
000000
ENDCHAR

STARTCHAR CODE003
ENCODING 3
SWIDTH 451 0
DWIDTH 24 0
BBX 24 48 0 -6
BITMAP
000000
000000
0F81F0
1FC3F8
3FE7FC
3FE7FC
7FFFFE
7FFFFE
7FFFFE
FFFFFF
FFFFFF
FFFFFF
FFFFFF
FFFFFF
FFFFFF
FFFFFF
FFFFFF
FFFFFF
FFFFFF
7FFFFE
7FFFFE
7FFFFE
3FFFFC
3FFFFC
3FFFFC
1FFFF8
1FFFF8
1FFFF8
0FFFF0
0FFFF0
07FFE0
07FFE0
03FFC0
03FFC0
01FF80
01FF80
00FF00
00FF00
007E00
007E00
003C00
003C00
001800
001800
000000
000000
000000
000000
ENDCHAR

STARTCHAR CODE004
ENCODING 4
SWIDTH 451 0
DWIDTH 24 0
BBX 24 48 0 -6
BITMAP
001800
003C00
003C00
007E00
007E00
00FF00
00FF00
01FF80
01FF80
03FFC0
03FFC0
07FFE0
07FFE0
0FFFF0
0FFFF0
1FFFF8
1FFFF8
3FFFFC
3FFFFC
7FFFFE
7FFFFE
FFFFFF
FFFFFF
7FFFFE
7FFFFE
3FFFFC
3FFFFC
1FFFF8
1FFFF8
0FFFF0
0FFFF0
07FFE0
07FFE0
03FFC0
03FFC0
01FF80
01FF80
00FF00
00FF00
007E00
007E00
003C00
003C00
001800
000000
000000
000000
000000
ENDCHAR

STARTCHAR CODE005
ENCODING 5
SWIDTH 451 0
DWIDTH 24 0
BBX 24 48 0 -6
BITMAP
000000
000000
003C00
00FF00
01FF80
03FFC0
03FFC0
07FFE0
07FFE0
07FFE0
07FFE0
07FFE0
07FFE0
07FFE0
03FFC0
03FFC0
07FFE0
1FFFF8
3FFFFC
3FFFFC
7FFFFE
7FFFFE
FFFFFF
FFFFFF
FFFFFF
FFFFFF
FFFFFF
FFFFFF
FFFFFF
FFFFFF
FFFFFF
7FFFFE
7FFFFE
3FFFFC
1FBDF8
003C00
003C00
003C00
003C00
007E00
007E00
00FF00
01FF80
01FF80
000000
000000
000000
000000
ENDCHAR

STARTCHAR CODE006
ENCODING 6
SWIDTH 451 0
DWIDTH 24 0
BBX 24 48 0 -6
BITMAP
000000
001800
001800
003C00
003C00
007E00
007E00
00FF00
00FF00
01FF80
01FF80
03FFC0
03FFC0
07FFE0
07FFE0
0FFFF0
0FFFF0
1FFFF8
1FFFF8
3FFFFC
3FFFFC
7FFFFE
7FFFFE
7FFFFE
FFFFFF
FFFFFF
FFFFFF
FFFFFF
FFFFFF
FFFFFF
FFFFFF
FFFFFF
FFFFFF
7FFFFE
7FFFFE
3FBDFC
1F3CF8
007E00
007E00
007E00
00FF00
00FF00
01FF80
01FF80
000000
000000
000000
000000
ENDCHAR

STARTCHAR CODE007
ENCODING 7
SWIDTH 451 0
DWIDTH 24 0
BBX 24 48 0 -6
BITMAP
000000
000000
000000
000000
000000
000000
000000
000000
000000
000000
000000
000000
000000
00FF00
03FFC0
07FFE0
0FFFF0
1FFFF8
1FFFF8
3FFFFC
3FFFFC
3FFFFC
3FFFFC
3FFFFC
3FFFFC
3FFFFC
3FFFFC
1FFFF8
1FFFF8
0FFFF0
07FFE0
03FFC0
00FF00
000000
000000
000000
000000
000000
000000
000000
000000
000000
000000
000000
000000
000000
000000
000000
ENDCHAR

STARTCHAR CODE008
ENCODING 8
SWIDTH 451 0
DWIDTH 24 0
BBX 24 48 0 -6
BITMAP
000000
000000
000000
000000
000000
FFFFFF
FFFFFF
FFFFFF
FFFFFF
FFFFFF
FFFFFF
FFFFFF
FFFFFF
FFC7FF
FF01FF
FE00FF
FE00FF
FC007F
FC007F
FC007F
F8003F
F8003F
F8003F
F8003F
F8003F
FC007F
FC007F
FC007F
FE00FF
FE00FF
FF01FF
FFC7FF
FFFFFF
FFFFFF
FFFFFF
FFFFFF
FFFFFF
FFFFFF
FFFFFF
FFFFFF
FFFFFF
000000
000000
000000
000000
000000
000000
000000
ENDCHAR

STARTCHAR CODE009
ENCODING 9
SWIDTH 451 0
DWIDTH 24 0
BBX 24 48 0 -6
BITMAP
000000
000000
000000
000000
000000
000000
000000
000000
000000
000000
000000
000000
000000
00FF00
03FFC0
07FFE0
0FC3F0
1F00F8
1E0078
3C003C
3C003C
38001C
38001C
38001C
38001C
3C003C
3C003C
1E0078
1F00F8
0FC3F0
07FFE0
03FFC0
00FF00
000000
000000
000000
000000
000000
000000
000000
000000
000000
000000
000000
000000
000000
000000
000000
ENDCHAR

STARTCHAR CODE010
ENCODING 10
SWIDTH 451 0
DWIDTH 24 0
BBX 24 48 0 -6
BITMAP
000000
000000
000000
000000
FFFFFF
FFFFFF
FFFFFF
FFFFFF
FFFFFF
FFFFFF
FFFFFF
FFFFFF
FFFFFF
FFFFFF
FFFFFF
FEFF7F
FFFFFF
FDFFBF
FDFFBF
FFFFFF
FBFFDF
FBFFDF
FBFFDF
FBFFDF
FBFFDF
FBFFDF
FFFFFF
FDFFBF
FDFFBF
FFFFFF
FEFF7F
FFFFFF
FFFFFF
FFFFFF
FFFFFF
FFFFFF
FFFFFF
FFFFFF
FFFFFF
FFFFFF
FFFFFF
FFFFFF
000000
000000
000000
000000
000000
000000
ENDCHAR

STARTCHAR CODE011
ENCODING 11
SWIDTH 451 0
DWIDTH 24 0
BBX 24 48 0 -6
BITMAP
000000
000000
000000
000003
00000F
00003F
0000FF
0003FF
000FFF
000FFF
00003F
00007F
000077
0000F7
0000E3
0001E3
0001C0
0003C0
000380
000780
000700
07FF00
1FFE00
3FFE00
7E3F00
780F00
F00780
F00780
E00380
E00380
E00380
F00780
F00780
780F00
7E3F00
3FFE00
1FFC00
07F000
000000
000000
000000
000000
000000
000000
000000
000000
000000
000000
ENDCHAR

STARTCHAR CODE012
ENCODING 12
SWIDTH 451 0
DWIDTH 24 0
BBX 24 48 0 -6
BITMAP
000000
000000
00FF00
03FFC0
07FFE0
0FC3F0
0F00F0
1E0078
1E0078
1C0038
1C0038
1C0038
1E0078
1E0078
0F00F0
0FC3F0
07FFE0
03FFC0
00FF00
001C00
001C00
001C00
001C00
001C00
001C00
FFFFFF
FFFFFF
FFFFFF
001C00
001C00
001C00
001C00
001C00
001C00
001C00
001C00
001C00
001C00
001C00
001C00
001C00
001C00
001C00
001C00
000000
000000
000000
000000
ENDCHAR

STARTCHAR CODE013
ENCODING 13
SWIDTH 451 0
DWIDTH 24 0
BBX 24 48 0 -6
BITMAP
000000
000000
000000
00E000
00F000
00F800
00FC00
00FE00
00FF00
00FF80
00FFC0
00FFE0
00EFF0
00E7F8
00E3FC
00E1FE
00E0FE
00E07F
00E03F
00E01F
00E01F
00E00F
00E00F
00E00F
00E00F
00E01E
00E01E
00E03C
00E03C
00E078
00E0F0
00E1E0
00E1C0
00E000
07E000
1FE000
3FE000
7FE000
7FC000
FFC000
FF8000
FF0000
7C0000
000000
000000
000000
000000
000000
ENDCHAR

STARTCHAR CODE014
ENCODING 14
SWIDTH 451 0
DWIDTH 24 0
BBX 24 48 0 -6
BITMAP
000000
000000
000007
00003F
0001FF
000FFF
007FFF
03FFFF
03FFF7
03FF87
03FC07
03E03F
0381FF
038FFF
03FFFF
03FFFF
03FFE7
03FF07
03F807
03C007
038007
038007
038007
038007
038007
038007
038007
038007
03800F
03803F
03807F
0380FF
0380FF
0781FE
1F81FE
3F81FC
7F81F8
7F80F0
FF0000
FF0000
FE0000
FC0000
780000
000000
000000
000000
000000
000000
ENDCHAR

STARTCHAR CODE015
ENCODING 15
SWIDTH 451 0
DWIDTH 24 0
BBX 24 48 0 -6
BITMAP
000000
001C00
001C00
001C00
001C00
001C00
601C06
F01C0F
F87E1F
7DFFBE
3FFFFC
1FE3F8
0F81F0
0F00F0
0F00F0
0E0070
0E0070
1E0078
1C0038
1C0038
1C0038
FC003F
FC003F
FC003F
1C0038
1C0038
1C0038
1E0078
0E0070
0E0070
0F0070
0F00F0
0781E0
0FE3F0
1FFFF8
3FFFFC
7C7E3E
F81C1F
F01C0F
601C06
001C00
001C00
001C00
001C00
001C00
000000
000000
000000
ENDCHAR

STARTCHAR CODE016
ENCODING 16
SWIDTH 451 0
DWIDTH 24 0
BBX 24 48 0 -6
BITMAP
000000
000000
000000
000000
C00000
E00000
F00000
FC0000
FE0000
FF0000
FF8000
FFE000
FFF000
FFF800
FFFC00
FFFF00
FFFF80
FFFFC0
FFFFE0
FFFFF8
FFFFFC
FFFFFE
FFFFFF
FFFFFF
FFFFFE
FFFFFC
FFFFF0
FFFFE0
FFFFC0
FFFF80
FFFF00
FFFC00
FFF800
FFF000
FFE000
FF8000
FF0000
FE0000
FC0000
F00000
E00000
C00000
000000
000000
000000
000000
000000
000000
ENDCHAR

STARTCHAR CODE017
ENCODING 17
SWIDTH 451 0
DWIDTH 24 0
BBX 24 48 0 -6
BITMAP
000000
000000
000000
000000
000003
000007
00000F
00003F
00007F
0000FF
0001FF
0007FF
000FFF
001FFF
003FFF
00FFFF
01FFFF
03FFFF
07FFFF
1FFFFF
3FFFFF
7FFFFF
FFFFFF
FFFFFF
7FFFFF
3FFFFF
0FFFFF
07FFFF
03FFFF
01FFFF
00FFFF
003FFF
001FFF
000FFF
0007FF
0001FF
0000FF
00007F
00003F
00000F
000007
000003
000000
000000
000000
000000
000000
000000
ENDCHAR

STARTCHAR CODE018
ENCODING 18
SWIDTH 451 0
DWIDTH 24 0
BBX 24 48 0 -6
BITMAP
000000
001800
003C00
007E00
00FF00
01FF80
03FFC0
07FFE0
0FBDF0
0E3C70
003C00
003C00
003C00
003C00
003C00
003C00
003C00
003C00
003C00
003C00
003C00
003C00
003C00
003C00
003C00
003C00
003C00
003C00
003C00
003C00
003C00
003C00
003C00
003C00
003C00
003C00
0E3C70
0FBDF0
07FFE0
03FFC0
01FF80
00FF00
007E00
003C00
001800
000000
000000
000000
ENDCHAR

STARTCHAR CODE019
ENCODING 19
SWIDTH 451 0
DWIDTH 24 0
BBX 24 48 0 -6
BITMAP
000000
000000
000000
000000
018180
03C3C0
03C3C0
03C3C0
03C3C0
03C3C0
03C3C0
03C3C0
03C3C0
03C3C0
03C3C0
03C3C0
03C3C0
03C3C0
03C3C0
03C3C0
03C3C0
03C3C0
03C3C0
03C3C0
03C3C0
018180
018180
018180
018180
000000
000000
000000
018180
03C3C0
03C3C0
03C3C0
03C3C0
018180
000000
000000
000000
000000
000000
000000
000000
000000
000000
000000
ENDCHAR

STARTCHAR CODE020
ENCODING 20
SWIDTH 451 0
DWIDTH 24 0
BBX 24 48 0 -6
BITMAP
000000
000000
03FFFF
0FFFFF
1FFFFF
3FFFFF
7F1E0F
7C1E0F
F81E0F
F81E0F
F01E0F
F01E0F
F01E0F
F01E0F
F81E0F
F81E0F
7C1E0F
7F1E0F
3FFE0F
1FFE0F
0FFE0F
03FE0F
001E0F
001E0F
001E0F
001E0F
001E0F
001E0F
001E0F
001E0F
001E0F
001E0F
001E0F
001E0F
001E0F
001E0F
001E0F
001E0F
001E0F
001E0F
001E0F
001E0F
001E0F
001E0F
000000
000000
000000
000000
ENDCHAR

STARTCHAR CODE021
ENCODING 21
SWIDTH 451 0
DWIDTH 24 0
BBX 24 48 0 -6
BITMAP
000000
000000
000000
000000
01FF1C
07FFDC
0FFFFC
1FC3FC
1F00FC
3E007C
3E003C
3C001C
3C001C
3EFC0C
3FFF0C
3FFF80
1FC780
1FE3C0
0FF9C0
07FFC0
07FFC0
077FE0
079FF0
03C7F8
03FFFC
01FFFC
007E7E
60003E
60003E
70001E
70001E
78003E
7C003C
7F007C
7FC1F8
7FFFF0
77FFE0
71FF80
000000
000000
000000
000000
000000
000000
000000
000000
000000
000000
ENDCHAR

STARTCHAR CODE022
ENCODING 22
SWIDTH 451 0
DWIDTH 24 0
BBX 24 48 0 -6
BITMAP
000000
000000
000000
000000
000000
000000
000000
000000
000000
000000
000000
000000
000000
FFFFFF
FFFFFF
FFFFFF
FFFFFF
FFFFFF
FFFFFF
FFFFFF
FFFFFF
FFFFFF
FFFFFF
FFFFFF
FFFFFF
FFFFFF
FFFFFF
FFFFFF
FFFFFF
FFFFFF
FFFFFF
FFFFFF
000000
000000
000000
000000
000000
000000
000000
000000
000000
000000
000000
000000
000000
000000
000000
000000
ENDCHAR

STARTCHAR CODE023
ENCODING 23
SWIDTH 451 0
DWIDTH 24 0
BBX 24 48 0 -6
BITMAP
000000
001800
003C00
007E00
00FF00
01FF80
03FFC0
07FFE0
0FBDF0
0E3C70
003C00
003C00
003C00
003C00
003C00
003C00
003C00
003C00
003C00
003C00
003C00
003C00
003C00
003C00
003C00
003C00
003C00
003C00
003C00
003C00
003C00
003C00
003C00
003C00
0E3C70
0FBDF0
07FFE0
03FFC0
01FF80
00FF00
007E00
003C00
FFFFFF
FFFFFF
FFFFFF
FFFFFF
000000
000000
ENDCHAR

STARTCHAR CODE024
ENCODING 24
SWIDTH 451 0
DWIDTH 24 0
BBX 24 48 0 -6
BITMAP
000000
001800
003C00
007E00
00FF00
01FF80
03FFC0
07FFE0
0FBDF0
0E3C70
003C00
003C00
003C00
003C00
003C00
003C00
003C00
003C00
003C00
003C00
003C00
003C00
003C00
003C00
003C00
003C00
003C00
003C00
003C00
003C00
003C00
003C00
003C00
003C00
003C00
003C00
003C00
003C00
003C00
003C00
003C00
003C00
003C00
003C00
003C00
000000
000000
000000
ENDCHAR

STARTCHAR CODE025
ENCODING 25
SWIDTH 451 0
DWIDTH 24 0
BBX 24 48 0 -6
BITMAP
000000
003C00
003C00
003C00
003C00
003C00
003C00
003C00
003C00
003C00
003C00
003C00
003C00
003C00
003C00
003C00
003C00
003C00
003C00
003C00
003C00
003C00
003C00
003C00
003C00
003C00
003C00
003C00
003C00
003C00
003C00
003C00
003C00
003C00
003C00
003C00
0E3C70
0FBDF0
07FFE0
03FFC0
01FF80
00FF00
007E00
003C00
001800
000000
000000
000000
ENDCHAR

STARTCHAR CODE026
ENCODING 26
SWIDTH 451 0
DWIDTH 24 0
BBX 24 48 0 -6
BITMAP
000000
000000
000000
000000
000000
000000
000000
000000
000000
000000
000000
000000
000000
000000
000000
000180
0001C0
0001E0
0000F0
0000F8
00007C
FFFFFE
FFFFFF
FFFFFF
FFFFFE
00007C
0000F8
0000F0
0001E0
0001C0
000180
000000
000000
000000
000000
000000
000000
000000
000000
000000
000000
000000
000000
000000
000000
000000
000000
000000
ENDCHAR

STARTCHAR CODE027
ENCODING 27
SWIDTH 451 0
DWIDTH 24 0
BBX 24 48 0 -6
BITMAP
000000
000000
000000
000000
000000
000000
000000
000000
000000
000000
000000
000000
000000
000000
000000
018000
038000
078000
0F0000
1F0000
3E0000
7FFFFF
FFFFFF
FFFFFF
7FFFFF
3E0000
1F0000
0F0000
078000
038000
018000
000000
000000
000000
000000
000000
000000
000000
000000
000000
000000
000000
000000
000000
000000
000000
000000
000000
ENDCHAR

STARTCHAR CODE028
ENCODING 28
SWIDTH 451 0
DWIDTH 24 0
BBX 24 48 0 -6
BITMAP
000000
000000
000000
000000
000000
000000
000000
000000
000000
000000
000000
F00000
F00000
F00000
F00000
F00000
F00000
F00000
F00000
F00000
F00000
F00000
F00000
F00000
F00000
F00000
F00000
F00000
F00000
F00000
F00000
F00000
FFFFFF
FFFFFF
FFFFFF
FFFFFF
000000
000000
000000
000000
000000
000000
000000
000000
000000
000000
000000
000000
ENDCHAR

STARTCHAR CODE029
ENCODING 29
SWIDTH 451 0
DWIDTH 24 0
BBX 24 48 0 -6
BITMAP
000000
000000
000000
000000
000000
000000
000000
000000
000000
000000
000000
000000
000000
000000
000000
000000
0300C0
0700E0
0F00F0
1E0078
3E007C
7FFFFE
FFFFFF
FFFFFF
7FFFFE
3E007C
1E0078
0F00F0
0700E0
0300C0
000000
000000
000000
000000
000000
000000
000000
000000
000000
000000
000000
000000
000000
000000
000000
000000
000000
000000
ENDCHAR

STARTCHAR CODE030
ENCODING 30
SWIDTH 451 0
DWIDTH 24 0
BBX 24 48 0 -6
BITMAP
000000
000000
000000
000000
000000
000000
000000
000000
001800
001800
003C00
003C00
007E00
007E00
00FF00
00FF00
00FF00
01FF80
01FF80
03FFC0
03FFC0
03FFC0
07FFE0
07FFE0
0FFFF0
0FFFF0
0FFFF0
1FFFF8
1FFFF8
3FFFFC
3FFFFC
3FFFFC
7FFFFE
7FFFFE
7FFFFE
FFFFFF
FFFFFF
000000
000000
000000
000000
000000
000000
000000
000000
000000
000000
000000
ENDCHAR

STARTCHAR CODE031
ENCODING 31
SWIDTH 451 0
DWIDTH 24 0
BBX 24 48 0 -6
BITMAP
000000
000000
000000
000000
000000
000000
000000
000000
FFFFFF
FFFFFF
7FFFFE
7FFFFE
7FFFFE
3FFFFC
3FFFFC
3FFFFC
1FFFF8
1FFFF8
0FFFF0
0FFFF0
0FFFF0
07FFE0
07FFE0
03FFC0
03FFC0
03FFC0
01FF80
01FF80
00FF00
00FF00
00FF00
007E00
007E00
003C00
003C00
001800
001800
000000
000000
000000
000000
000000
000000
000000
000000
000000
000000
000000
ENDCHAR

STARTCHAR CODE032
ENCODING 32
SWIDTH 451 0
DWIDTH 24 0
BBX 24 48 0 -6
BITMAP
000000
000000
000000
000000
000000
000000
000000
000000
000000
000000
000000
000000
000000
000000
000000
000000
000000
000000
000000
000000
000000
000000
000000
000000
000000
000000
000000
000000
000000
000000
000000
000000
000000
000000
000000
000000
000000
000000
000000
000000
000000
000000
000000
000000
000000
000000
000000
000000
ENDCHAR

STARTCHAR CODE033
ENCODING 33
SWIDTH 451 0
DWIDTH 24 0
BBX 24 48 0 -6
BITMAP
000000
000000
000000
000000
000000
000380
000380
000380
000780
000780
000780
000F80
000F80
000F00
001F00
001F00
001E00
001E00
003E00
003E00
003C00
007C00
007C00
007800
00F800
00F800
00F000
00F000
01F000
01E000
01E000
01E000
01C000
01C000
000000
070000
078000
0F8000
0F8000
0F0000
070000
000000
000000
000000
000000
000000
000000
000000
ENDCHAR

STARTCHAR CODE034
ENCODING 34
SWIDTH 451 0
DWIDTH 24 0
BBX 24 48 0 -6
BITMAP
000000
000000
000000
000000
00F3C0
00F3C0
00F3C0
00F3C0
00F3C0
00F3C0
01E780
01E780
01E780
03CF00
03CF00
038E00
000000
000000
000000
000000
000000
000000
000000
000000
000000
000000
000000
000000
000000
000000
000000
000000
000000
000000
000000
000000
000000
000000
000000
000000
000000
000000
000000
000000
000000
000000
000000
000000
ENDCHAR

STARTCHAR CODE035
ENCODING 35
SWIDTH 451 0
DWIDTH 24 0
BBX 24 48 0 -6
BITMAP
000000
000000
000000
000000
000000
000000
000000
000000
000000
000000
000000
000000
000000
007380
007380
007380
007380
007380
007380
00F780
00E780
07FFF0
7FFFFF
7FFFFF
7CE71F
07FFF0
7FFFFF
7FFFFF
7CEE1F
01EE00
01CE00
01CE00
01CE00
01CE00
01CE00
01CE00
01CE00
01CE00
01CE00
000000
000000
000000
000000
000000
000000
000000
000000
000000
ENDCHAR

STARTCHAR CODE036
ENCODING 36
SWIDTH 451 0
DWIDTH 24 0
BBX 24 48 0 -6
BITMAP
000000
000000
000000
000000
000000
000000
000000
000000
000000
0001C0
0001C0
0003C0
003FF0
00FFF8
01FFFC
01FFBC
03E71C
03CF3C
03CE3C
038EFC
03FFF8
03FFF0
01FFC0
01FC00
00F800
007C00
007C00
007E00
0E7F00
1EF780
1CE780
3CE3C0
38E3C0
39E3C0
39C7C0
3DCF80
3FFF80
1FFF00
0FFE00
03F000
038000
038000
000000
000000
000000
000000
000000
000000
ENDCHAR

STARTCHAR CODE037
ENCODING 37
SWIDTH 451 0
DWIDTH 24 0
BBX 24 48 0 -6
BITMAP
000000
000000
000000
000000
000000
000000
000000
000000
000000
000038
078038
0FC078
1FE078
3CE0F0
3CE0F0
38E1E0
78E1E0
79E3C0
71E7C0
71C780
73CF00
73CF00
7F9E00
3F3E78
1E3CFC
0079FE
007BCE
00F3CE
00E38E
01E38E
01C78E
03C71E
03871E
07871C
07873C
0F073C
0F07F8
0F03F0
0E01E0
0E0000
000000
000000
000000
000000
000000
000000
000000
000000
ENDCHAR

STARTCHAR CODE038
ENCODING 38
SWIDTH 451 0
DWIDTH 24 0
BBX 24 48 0 -6
BITMAP
000000
000000
000000
000000
000000
000000
000000
01E000
07F800
0FFC00
0FFC00
1F3E00
1E1E00
1E1E00
1E3E00
1E3C00
1F7C00
0FF800
0FF000
07E000
0FC000
1FDFFF
3FDFFF
3FFFFF
7DFFFF
79F3C0
F8F3C0
F0FBC0
F07BC0
F07FC0
F03FC0
F03F80
F01F80
F81F80
7C3FC0
7FFFF0
3FFFFE
1FF9FE
03E07E
00001E
000000
000000
000000
000000
000000
000000
000000
000000
ENDCHAR

STARTCHAR CODE039
ENCODING 39
SWIDTH 451 0
DWIDTH 24 0
BBX 24 48 0 -6
BITMAP
000000
000000
000000
000F00
000F00
000F00
000F00
001F00
001E00
001E00
003E00
003C00
007C00
007800
007000
000000
000000
000000
000000
000000
000000
000000
000000
000000
000000
000000
000000
000000
000000
000000
000000
000000
000000
000000
000000
000000
000000
000000
000000
000000
000000
000000
000000
000000
000000
000000
000000
000000
ENDCHAR

STARTCHAR CODE040
ENCODING 40
SWIDTH 451 0
DWIDTH 24 0
BBX 24 48 0 -6
BITMAP
000000
000000
000070
0000F0
0001E0
0003C0
000780
000780
000F00
001E00
001E00
003C00
003C00
007800
007800
00F000
00F000
00F000
00E000
01E000
01E000
01E000
01C000
01C000
01C000
03C000
03C000
03C000
03C000
038000
038000
038000
038000
038000
038000
038000
038000
038000
03C000
03C000
01C000
01C000
01E000
00E000
00F000
007000
000000
000000
ENDCHAR

STARTCHAR CODE041
ENCODING 41
SWIDTH 451 0
DWIDTH 24 0
BBX 24 48 0 -6
BITMAP
000000
007000
007800
003800
003C00
001C00
001C00
001E00
001E00
000E00
000E00
000E00
000E00
000E00
000E00
000E00
000E00
000E00
001E00
001E00
001E00
001E00
001C00
001C00
001C00
003C00
003C00
003C00
003800
007800
007800
007800
00F000
00F000
01E000
01E000
03C000
03C000
078000
0F0000
0F0000
1E0000
3C0000
780000
700000
000000
000000
000000
ENDCHAR

STARTCHAR CODE042
ENCODING 42
SWIDTH 451 0
DWIDTH 24 0
BBX 24 48 0 -6
BITMAP
000000
000000
000000
000000
000000
000000
000000
000000
000000
000000
000000
000000
000000
000000
000000
000000
000E00
000E00
001E00
03DE00
03FC70
03FDF0
00FFF0
007FE0
00FF80
01FE00
03FF00
03CF80
038780
038380
000000
000000
000000
000000
000000
000000
000000
000000
000000
000000
000000
000000
000000
000000
000000
000000
000000
000000
ENDCHAR

STARTCHAR CODE043
ENCODING 43
SWIDTH 451 0
DWIDTH 24 0
BBX 24 48 0 -6
BITMAP
000000
000000
000000
000000
000000
000000
000000
000000
000000
000000
000000
000000
000000
001E00
001E00
001E00
001E00
003E00
003C00
003C00
003C00
01FFE0
1FFFFC
1FFFFC
1FFFFC
1F3C3C
003C00
003C00
003C00
003E00
001E00
001E00
001E00
000000
000000
000000
000000
000000
000000
000000
000000
000000
000000
000000
000000
000000
000000
000000
ENDCHAR

STARTCHAR CODE044
ENCODING 44
SWIDTH 451 0
DWIDTH 24 0
BBX 24 48 0 -6
BITMAP
000000
000000
000000
000000
000000
000000
000000
000000
000000
000000
000000
000000
000000
000000
000000
000000
000000
000000
000000
000000
000000
000000
000000
000000
000000
000000
000000
000000
000000
000000
000000
000000
000000
000000
000000
03C000
03C000
03C000
03C000
03C000
03C000
07C000
078000
0F8000
0F0000
0F0000
0E0000
000000
ENDCHAR

STARTCHAR CODE045
ENCODING 45
SWIDTH 451 0
DWIDTH 24 0
BBX 24 48 0 -6
BITMAP
000000
000000
000000
000000
000000
000000
000000
000000
000000
000000
000000
000000
000000
000000
000000
000000
000000
000000
000000
000000
000000
00FFC0
0FFFF8
0FFFF8
0FFFF8
0F8078
000000
000000
000000
000000
000000
000000
000000
000000
000000
000000
000000
000000
000000
000000
000000
000000
000000
000000
000000
000000
000000
000000
ENDCHAR

STARTCHAR CODE046
ENCODING 46
SWIDTH 451 0
DWIDTH 24 0
BBX 24 48 0 -6
BITMAP
000000
000000
000000
000000
000000
000000
000000
000000
000000
000000
000000
000000
000000
000000
000000
000000
000000
000000
000000
000000
000000
000000
000000
000000
000000
000000
000000
000000
000000
000000
000000
000000
000000
000000
000000
0E0000
0F0000
1F0000
1F0000
1E0000
0E0000
000000
000000
000000
000000
000000
000000
000000
ENDCHAR

STARTCHAR CODE047
ENCODING 47
SWIDTH 451 0
DWIDTH 24 0
BBX 24 48 0 -6
BITMAP
000000
000000
000000
000000
000000
000038
00007C
00007C
0000FC
0000F8
0001F8
0001F0
0003F0
0003E0
0007C0
0007C0
000F80
000F80
001F00
001F00
003E00
003E00
007C00
007C00
00F800
00F800
01F000
01F000
03E000
03E000
07C000
07C000
0F8000
0F8000
0F8000
1F0000
1F0000
1F0000
3E0000
3E0000
3C0000
3C0000
1C0000
000000
000000
000000
000000
000000
ENDCHAR

STARTCHAR CODE048
ENCODING 48
SWIDTH 451 0
DWIDTH 24 0
BBX 24 48 0 -6
BITMAP
000000
000000
000000
000000
000000
000000
000000
000000
000000
000000
000000
000000
000000
001E00
003F00
007F80
00FFC0
01F7C0
01E3E0
03C1E0
03C1E0
0780E0
0780F0
0F00F0
0F00F0
0F00F0
0F00E0
0F01E0
0F01E0
0F01E0
0F03C0
0F03C0
0F07C0
0F8780
07DF00
07FF00
03FE00
01FC00
003000
000000
000000
000000
000000
000000
000000
000000
000000
000000
ENDCHAR

STARTCHAR CODE049
ENCODING 49
SWIDTH 451 0
DWIDTH 24 0
BBX 24 48 0 -6
BITMAP
000000
000000
000000
000000
000000
000000
000000
000000
000000
000000
000000
000000
000000
000780
000F80
003F80
007F80
01FF00
07FF00
07FF00
03DE00
001E00
003E00
003E00
003C00
003C00
007C00
007800
007800
007800
007800
00F800
00F000
00F000
00F000
00F000
00F000
00F000
000000
000000
000000
000000
000000
000000
000000
000000
000000
000000
ENDCHAR

STARTCHAR CODE050
ENCODING 50
SWIDTH 451 0
DWIDTH 24 0
BBX 24 48 0 -6
BITMAP
000000
000000
000000
000000
000000
000000
000000
000000
000000
000000
000000
000000
000000
001F00
007FC0
01FFE0
01FFE0
03F1F0
03C0F0
0380F0
0301F0
0003F0
0007E0
000FC0
001F80
003F00
007E00
00FC00
01F800
03F000
07E000
0FC000
0F8000
1F7F80
3FFF80
3FFF80
3FFF80
1FC000
000000
000000
000000
000000
000000
000000
000000
000000
000000
000000
ENDCHAR

STARTCHAR CODE051
ENCODING 51
SWIDTH 451 0
DWIDTH 24 0
BBX 24 48 0 -6
BITMAP
000000
000000
000000
000000
000000
000000
000000
000000
000000
000000
000000
000000
000000
007E00
01FF00
03FF80
03EF80
038780
000780
000F80
001F80
007F00
01FE00
01FE00
01FF00
01CF80
000780
0007C0
0003C0
0003C0
1C03C0
1C07C0
1C0780
1E0F80
0FBF80
0FFF00
07FE00
01F800
000000
000000
000000
000000
000000
000000
000000
000000
000000
000000
ENDCHAR

STARTCHAR CODE052
ENCODING 52
SWIDTH 451 0
DWIDTH 24 0
BBX 24 48 0 -6
BITMAP
000000
000000
000000
000000
000000
000000
000000
000000
000000
000000
000000
000000
0001E0
0003E0
0007E0
000FE0
001FE0
003FE0
007FC0
00FBC0
00F7C0
01E780
03C780
07CF80
078FF0
0FFFF0
0FFFF0
0FFFF0
0FFE00
001E00
001E00
001E00
003E00
003C00
003C00
003C00
003C00
003C00
003C00
000000
000000
000000
000000
000000
000000
000000
000000
000000
ENDCHAR

STARTCHAR CODE053
ENCODING 53
SWIDTH 451 0
DWIDTH 24 0
BBX 24 48 0 -6
BITMAP
000000
000000
000000
000000
000000
000000
000000
000000
000000
000000
000000
000000
000000
01FFE0
01FFE0
00FFE0
01FFE0
01E000
03E000
03C000
07C000
07FC00
07FF00
07FF80
07CF80
0387C0
0003C0
0003C0
0003C0
1E03C0
1E03C0
1E07C0
1E07C0
1F0F80
0FBF80
0FFF00
07FE00
01F800
000000
000000
000000
000000
000000
000000
000000
000000
000000
000000
ENDCHAR

STARTCHAR CODE054
ENCODING 54
SWIDTH 451 0
DWIDTH 24 0
BBX 24 48 0 -6
BITMAP
000000
000000
000000
000000
000000
000000
000000
000000
000000
000000
000000
000000
000000
000000
000780
000F80
003F80
007E00
00FC00
00F800
01F000
03E000
03FE00
07FF80
07FFC0
07C7C0
0F83E0
0F81E0
0F01E0
0F01E0
0F01E0
0F01E0
0F01E0
0F83E0
07C7C0
07FFC0
03FF80
01FF00
007C00
000000
000000
000000
000000
000000
000000
000000
000000
000000
ENDCHAR

STARTCHAR CODE055
ENCODING 55
SWIDTH 451 0
DWIDTH 24 0
BBX 24 48 0 -6
BITMAP
000000
000000
000000
000000
000000
000000
000000
000000
000000
000000
000000
000000
000000
0003E0
003FF0
07FFF0
07FFF0
07FFE0
07E3E0
0007C0
000780
000F80
000F00
001F00
001E00
003E00
003C00
007C00
007800
00F800
00F000
00F000
01F000
01E000
01E000
03E000
03C000
03C000
03C000
000000
000000
000000
000000
000000
000000
000000
000000
000000
ENDCHAR

STARTCHAR CODE056
ENCODING 56
SWIDTH 451 0
DWIDTH 24 0
BBX 24 48 0 -6
BITMAP
000000
000000
000000
000000
000000
000000
000000
000000
000000
000000
000000
000000
003E00
00FF80
01FFC0
01E7C0
03C3C0
03C3C0
03E3C0
01F7C0
01FF80
00FF80
007F00
01FF00
03FF80
07E7C0
0FC3C0
0F83E0
1F01E0
1F01E0
1E01E0
1E03E0
1E03E0
1F07C0
0F9FC0
0FFF80
07FF00
01FC00
000000
000000
000000
000000
000000
000000
000000
000000
000000
000000
ENDCHAR

STARTCHAR CODE057
ENCODING 57
SWIDTH 451 0
DWIDTH 24 0
BBX 24 48 0 -6
BITMAP
000000
000000
000000
000000
000000
000000
000000
000000
000000
000000
000000
000000
000000
003E00
00FF80
01FFC0
03E3E0
07C1E0
0780F0
0F80F0
0F00F0
0F00F0
0F01F0
0F01F0
0F83E0
07CFE0
07FFE0
03FFC0
00FBC0
0003C0
000780
000780
000F00
001F00
001E00
003C00
007C00
007800
007000
000000
000000
000000
000000
000000
000000
000000
000000
000000
ENDCHAR

STARTCHAR CODE058
ENCODING 58
SWIDTH 451 0
DWIDTH 24 0
BBX 24 48 0 -6
BITMAP
000000
000000
000000
000000
000000
000000
000000
000000
000000
000000
000000
000000
000000
000000
000000
000000
001C00
001E00
003E00
003E00
003C00
001C00
000000
000000
000000
000000
000000
000000
007000
007800
00F800
00F800
00F000
007000
000000
000000
000000
000000
000000
000000
000000
000000
000000
000000
000000
000000
000000
000000
ENDCHAR

STARTCHAR CODE059
ENCODING 59
SWIDTH 451 0
DWIDTH 24 0
BBX 24 48 0 -6
BITMAP
000000
000000
000000
000000
000000
000000
000000
000000
000000
000000
000000
000000
000000
000000
000000
000000
001C00
001E00
003E00
003E00
003C00
001C00
000000
000000
000000
000000
000000
000000
007000
007800
007800
007800
007800
007800
00F800
00F000
00F000
01F000
01E000
01E000
000000
000000
000000
000000
000000
000000
000000
000000
ENDCHAR

STARTCHAR CODE060
ENCODING 60
SWIDTH 451 0
DWIDTH 24 0
BBX 24 48 0 -6
BITMAP
000000
000000
000000
000000
000000
000000
000000
000000
000000
000000
000000
000380
000780
000F80
001F80
003F00
007E00
007C00
00F800
01F800
03F000
07E000
0FC000
0F8000
0F0000
0F0000
078000
078000
078000
03C000
03C000
03E000
01E000
01F000
00F000
00F800
007800
007C00
003C00
003E00
001E00
001E00
000E00
000000
000000
000000
000000
000000
ENDCHAR

STARTCHAR CODE061
ENCODING 61
SWIDTH 451 0
DWIDTH 24 0
BBX 24 48 0 -6
BITMAP
000000
000000
000000
000000
000000
000000
000000
000000
000000
000000
000000
000000
000000
000000
000000
000000
000000
000000
000000
07FFE0
7FFFFE
7FFFFE
7FFFFE
7C003E
000000
03FFE0
3FFFFE
3FFFFE
3FFFFE
3E003E
000000
000000
000000
000000
000000
000000
000000
000000
000000
000000
000000
000000
000000
000000
000000
000000
000000
000000
ENDCHAR

STARTCHAR CODE062
ENCODING 62
SWIDTH 451 0
DWIDTH 24 0
BBX 24 48 0 -6
BITMAP
000000
000000
000000
000000
000000
000000
000000
000000
000000
000000
007000
007000
007800
007800
007C00
003C00
003C00
001E00
001E00
001E00
000F00
000F00
000F00
000780
000780
000780
0003C0
0003C0
0003C0
0007C0
000FC0
001F80
003F00
007E00
00FC00
01F800
03F000
07E000
0FC000
1F8000
1F0000
1E0000
1C0000
000000
000000
000000
000000
000000
ENDCHAR

STARTCHAR CODE063
ENCODING 63
SWIDTH 451 0
DWIDTH 24 0
BBX 24 48 0 -6
BITMAP
000000
000000
000000
000000
000000
003F00
00FFC0
01FFE0
03F9E0
07E0F0
07C0F0
0F8070
0F8070
0F00F0
0701F0
0003E0
0007E0
000FC0
001F80
003F00
007E00
00FC00
00F800
01F000
01F000
03E000
03E000
03C000
03C000
03C000
01C000
000000
000000
000000
000000
038000
03C000
07C000
07C000
07C000
078000
038000
000000
000000
000000
000000
000000
000000
ENDCHAR

STARTCHAR CODE064
ENCODING 64
SWIDTH 451 0
DWIDTH 24 0
BBX 24 48 0 -6
BITMAP
000000
000000
000000
000000
000000
000000
007FC0
01FFF0
03FFF8
07F0FC
0FC03C
0F801E
1F0F9E
1E3FCE
3E7FCE
3CFDCE
3CF1CE
79E3CE
79E3CE
7BC38E
73C78E
73878E
73871E
778F1E
778F1C
771E3C
773E3C
777E3C
7FFE78
7FFFF8
3BEFF0
3C07E0
3C03C0
1E0000
1F0000
0FC000
07FF80
03FF80
00FF80
000000
000000
000000
000000
000000
000000
000000
000000
000000
ENDCHAR

STARTCHAR CODE065
ENCODING 65
SWIDTH 451 0
DWIDTH 24 0
BBX 24 48 0 -6
BITMAP
000000
000000
000000
000000
000070
0000F8
0001F8
0001F8
0003F8
0007F8
0007F8
000FF8
001F78
001F78
003E78
003C78
007C78
007878
00F878
00F07F
01F0FF
01EFFF
03FFFF
03FFF8
1FFF78
FFF078
FF8078
FF8078
FF0078
0F0078
1F0078
1E0078
1E0078
3E007C
3C003C
3C003C
7C003C
78003E
78001E
78001E
000000
000000
000000
000000
000000
000000
000000
000000
ENDCHAR

STARTCHAR CODE066
ENCODING 66
SWIDTH 451 0
DWIDTH 24 0
BBX 24 48 0 -6
BITMAP
000000
000000
000000
000000
000000
00FFC0
03FFF0
0FFFF8
1FF0F8
1FF07C
1DF03C
01E03C
01E07C
03E07C
03C0F8
03C3F8
07CFF0
07FFE0
07FF80
0FFF00
0FFFC0
0F1FE0
0F03F0
1F01F0
1E00F8
1E00F8
1E0078
3E0078
3C0078
3C0078
3C00F8
3C00F8
7C01F0
7C07F0
7C3FE0
7FFFC0
7FFF80
7FFE00
7FF000
380000
000000
000000
000000
000000
000000
000000
000000
000000
ENDCHAR

STARTCHAR CODE067
ENCODING 67
SWIDTH 451 0
DWIDTH 24 0
BBX 24 48 0 -6
BITMAP
000000
000000
000000
000000
000000
0003F0
001FF8
003FF8
007F3C
00FC1C
00F81C
01F03C
03F03C
03E03C
07C078
07C0F8
0F81F0
0F83F0
0F03E0
1F03C0
1F0000
1E0000
1E0000
3E0000
3E0000
3C0000
3C0018
3C0018
3C0038
3C0038
3C0078
3C00F0
3E00F0
3E01E0
1E03E0
1F07C0
0FDF80
0FFF00
07FE00
01F800
000000
000000
000000
000000
000000
000000
000000
000000
ENDCHAR

STARTCHAR CODE068
ENCODING 68
SWIDTH 451 0
DWIDTH 24 0
BBX 24 48 0 -6
BITMAP
000000
000000
000000
000000
000000
003C00
01FF80
07FFE0
1FF3F0
3FC0F8
3FC078
3FC03C
33C03C
07C03C
07801E
07801E
07801E
0F801E
0F001E
0F003E
0F003E
0F003C
1F003C
1E007C
1E007C
1E0078
1E00F8
3E00F0
3C01F0
3C01F0
3C03E0
3C07C0
3C0FC0
3C1F80
3C3F00
3C7E00
3FFC00
3FF800
1FF000
0FC000
000000
000000
000000
000000
000000
000000
000000
000000
ENDCHAR

STARTCHAR CODE069
ENCODING 69
SWIDTH 451 0
DWIDTH 24 0
BBX 24 48 0 -6
BITMAP
000000
000000
000000
000000
0007FE
007FFE
03FFFE
03FFFE
03FC00
03E000
01E000
03E000
03C000
03C000
07C000
078000
078000
0FBFC0
0FFFC0
0FFFC0
1FFFC0
1FE000
1E0000
1E0000
3E0000
3C0000
3C0000
3C0000
3C0000
7C0000
780000
780000
78FFC0
7FFFC0
7FFFC0
7FFFC0
7FC000
7E0000
380000
000000
000000
000000
000000
000000
000000
000000
000000
000000
ENDCHAR

STARTCHAR CODE070
ENCODING 70
SWIDTH 451 0
DWIDTH 24 0
BBX 24 48 0 -6
BITMAP
000000
000000
000000
000000
0001FE
003FFE
07FFFE
07FFFE
07FE00
01E000
01E000
03E000
03C000
03C000
03C000
078000
078000
079FE0
07FFE0
0FFFE0
0FF800
0F0000
1F0000
1E0000
1E0000
1E0000
3E0000
3C0000
3C0000
3C0000
3C0000
3C0000
7C0000
780000
780000
780000
780000
780000
700000
000000
000000
000000
000000
000000
000000
000000
000000
000000
ENDCHAR

STARTCHAR CODE071
ENCODING 71
SWIDTH 451 0
DWIDTH 24 0
BBX 24 48 0 -6
BITMAP
000000
000000
000000
000000
000FC0
003FE0
007FF0
00FCF8
01F078
03E078
03C038
07C038
0F8078
0F0078
1F00F8
1E01F0
1E03F0
3E03E0
3C03C0
3C0180
3C0000
7C0000
7803F0
781FF8
781FF8
781F78
780078
7800F8
7801F8
7C01F0
3C03F0
3E07F0
3F1FF0
1FFFF0
0FFEE0
03F8E0
0001E0
0001E0
0001E0
0001C0
0001C0
0001C0
000000
000000
000000
000000
000000
000000
ENDCHAR

STARTCHAR CODE072
ENCODING 72
SWIDTH 451 0
DWIDTH 24 0
BBX 24 48 0 -6
BITMAP
000000
000000
000000
00F000
00F006
00F007
00F00F
01F00F
01F00F
01F01F
01E01E
03E01E
03E03E
03C03C
03C03C
07C07C
078078
078078
0F80FF
0F07FF
0F7FFF
0FFFF8
1FFFF0
7FF9E0
FFC1E0
FE01E0
FE03E0
DE03E0
3C03C0
3C03C0
3C03C0
3C03C0
3C03C0
3C03C0
380780
380780
380780
380380
380380
380180
000000
000000
000000
000000
000000
000000
000000
000000
ENDCHAR

STARTCHAR CODE073
ENCODING 73
SWIDTH 451 0
DWIDTH 24 0
BBX 24 48 0 -6
BITMAP
000000
000000
000000
000000
000000
0001C0
0001E0
0003E0
0003E0
0003C0
0007C0
000780
000780
000F00
000F00
000F00
001E00
001E00
001E00
001C00
003C00
003C00
003800
007800
007800
007800
007800
00F000
00F000
00F000
00F000
00F000
00F000
01E000
01E000
01E000
01E000
01E000
00E000
000000
000000
000000
000000
000000
000000
000000
000000
000000
ENDCHAR

STARTCHAR CODE074
ENCODING 74
SWIDTH 451 0
DWIDTH 24 0
BBX 24 48 0 -6
BITMAP
000000
000000
000000
000000
00003F
0007FF
007FFF
007FF0
007FF0
0070F0
0000F0
0000F0
0000E0
0001E0
0001E0
0001E0
0001E0
0E01C0
1E03C0
1E03C0
3E03C0
3C03C0
3C03C0
380780
780780
780780
700780
700F00
700F00
700F00
781F00
781E00
783E00
3C3C00
3E7C00
1FF800
0FF000
03E000
000000
000000
000000
000000
000000
000000
000000
000000
000000
000000
ENDCHAR

STARTCHAR CODE075
ENCODING 75
SWIDTH 451 0
DWIDTH 24 0
BBX 24 48 0 -6
BITMAP
000000
000000
000000
000000
00E000
00E000
01E000
01E01F
01E07F
01C0FF
03C3F8
03C7E0
03DFC0
07BF00
07FE00
07F800
07F000
0FE000
0FE000
0FE000
1EE000
1EE000
1EE000
3CE000
3CF000
3CF000
78F000
78F000
787000
787070
F07070
F07870
F078F0
F03CF0
E03DE0
E03FE0
E01FC0
E00F80
E00000
000000
000000
000000
000000
000000
000000
000000
000000
000000
ENDCHAR

STARTCHAR CODE076
ENCODING 76
SWIDTH 451 0
DWIDTH 24 0
BBX 24 48 0 -6
BITMAP
000000
000000
000000
000000
000000
000000
0003C0
0003C0
0007C0
0007C0
000F80
000F00
001F00
001E00
003E00
003C00
003C00
007800
007800
00F000
00F000
00E000
01E000
01E000
01E000
03C000
03C000
03C000
078000
078000
078000
078000
0701E0
071FE0
07FFE0
07FFE0
07FE00
03E000
000000
000000
000000
000000
000000
000000
000000
000000
000000
000000
ENDCHAR

STARTCHAR CODE077
ENCODING 77
SWIDTH 451 0
DWIDTH 24 0
BBX 24 48 0 -6
BITMAP
000000
000000
000000
000000
00E01E
01F01F
01F03F
03F03F
03F07F
07F07F
07F0FF
0FF0FF
0FF0FF
0FF1FE
1FF1FE
1EF1DE
1EE3DE
1EE3DE
3CE3BC
3CE7BC
3CE7BC
3CE73C
3CEF3C
78EF3C
78EE38
78FE38
78FE38
78FE38
F0FC38
F0FC38
F0FC38
F07838
F07838
F0003C
E0003C
E0001C
E0001E
E0001E
E0000E
E00000
E00000
000000
000000
000000
000000
000000
000000
000000
ENDCHAR

STARTCHAR CODE078
ENCODING 78
SWIDTH 451 0
DWIDTH 24 0
BBX 24 48 0 -6
BITMAP
000000
000000
000000
000000
000007
00700F
00F80F
00F80F
01F81F
01F01E
01F01E
03F01C
03F03C
07F03C
07F038
077078
0F7078
0E7078
0E7070
1E7870
1C78F0
1C78F0
1C78E0
3C78E0
3879E0
3839E0
3839E0
783DC0
703DC0
703DC0
703DC0
F01FC0
F01FC0
F01FC0
F01FC0
F00FC0
F00FC0
E00F80
E00780
E00000
000000
000000
000000
000000
000000
000000
000000
000000
ENDCHAR

STARTCHAR CODE079
ENCODING 79
SWIDTH 451 0
DWIDTH 24 0
BBX 24 48 0 -6
BITMAP
000000
000000
000000
000000
000000
00FF80
03FFE0
07FFF0
0FFDF8
0F7C7C
00F83C
00F03E
01E01E
01E01E
03C01E
03C00E
07800E
07800E
0F001E
0F001E
0E001E
1E001C
1E001C
1C003C
1C003C
3C0038
3C0078
380078
3800F0
3800F0
3801E0
3803E0
3C03C0
3C0780
3C0F80
1E3F00
1FFE00
0FFC00
07F800
01E000
000000
000000
000000
000000
000000
000000
000000
000000
ENDCHAR

STARTCHAR CODE080
ENCODING 80
SWIDTH 451 0
DWIDTH 24 0
BBX 24 48 0 -6
BITMAP
000000
000000
000000
000000
000000
01DF80
01FFE0
01FFF0
07F9F8
0FE07C
1FC03C
3FC03E
3FC01E
1B801E
03801E
03803E
07803C
07807C
078078
0700F8
0701F0
3F07E0
3F3FC0
3FFF80
1FFE00
1FF000
1E0000
1E0000
1C0000
1C0000
3C0000
3C0000
3C0000
3C0000
380000
380000
380000
380000
380000
380000
000000
000000
000000
000000
000000
000000
000000
000000
ENDCHAR

STARTCHAR CODE081
ENCODING 81
SWIDTH 451 0
DWIDTH 24 0
BBX 24 48 0 -6
BITMAP
000000
000000
000000
000000
000000
01FF00
07FFC0
0FFFE0
1FFFF0
1EF9F0
00F0F8
01F078
03E078
03C03C
07C03C
07803C
0F801C
0F001C
1F003C
1E003C
1E003C
3C0038
3C0078
3C0078
380078
7800F0
7800F0
7801F0
7FC1E0
7FF3E0
7FFFC0
7CFFC0
783F80
783F00
7C1F00
3E7E00
3FFF00
1FFF00
0FFF80
03C780
0007C0
0003EE
0003FE
0001FE
00007C
000000
000000
000000
ENDCHAR

STARTCHAR CODE082
ENCODING 82
SWIDTH 451 0
DWIDTH 24 0
BBX 24 48 0 -6
BITMAP
000000
000000
000000
000000
00C000
01FFE0
01FFF8
03FFF8
07FCFC
0FF03E
0FE01E
0FE01E
01C01E
03C01E
03C01E
03803E
07807C
0780FC
0781F8
070FF0
1FFFE0
1FFFC0
1FFF00
1FF000
1F0000
1F8000
3FC000
3FC000
3DE000
3CF000
3CF800
787C00
783C00
783E00
781F00
780F80
7807C0
7803C0
7803C0
0001C0
000000
000000
000000
000000
000000
000000
000000
000000
ENDCHAR

STARTCHAR CODE083
ENCODING 83
SWIDTH 451 0
DWIDTH 24 0
BBX 24 48 0 -6
BITMAP
000000
000000
000000
000000
000000
0007F8
003FFC
007FFE
00FE1E
01F81E
01F01E
03E01E
03C03E
03C03C
038078
0381F8
03CFF0
03CFE0
01CF80
01E000
01E000
00F000
00F800
007C00
003E00
001F00
000F00
0E0780
0E07C0
1E03C0
1C03E0
1C01E0
1C01E0
1E03E0
1E07C0
0FFFC0
0FFF80
07FF00
01FC00
000000
000000
000000
000000
000000
000000
000000
000000
000000
ENDCHAR

STARTCHAR CODE084
ENCODING 84
SWIDTH 451 0
DWIDTH 24 0
BBX 24 48 0 -6
BITMAP
000000
000000
000000
000000
000000
001FFF
01FFFF
1FFFFF
FFFC00
FFBC00
F03C00
007800
007800
007800
00F000
00F000
01F000
01E000
01E000
03E000
03C000
03C000
03C000
07C000
078000
078000
078000
0F0000
0F0000
0F0000
0F0000
1F0000
1E0000
1E0000
1E0000
1E0000
1E0000
1E0000
1E0000
0E0000
000000
000000
000000
000000
000000
000000
000000
000000
ENDCHAR

STARTCHAR CODE085
ENCODING 85
SWIDTH 451 0
DWIDTH 24 0
BBX 24 48 0 -6
BITMAP
000000
000000
000000
000000
000000
007007
00F00F
01F00F
03F01F
03E01F
07C03E
07C07E
0F807E
0F00FC
1F00FC
1E01FC
3E01F8
3C03F8
3C03F8
7C07F8
7807F0
780FF0
780FF0
F00FF0
F01EF0
F01EE0
F03DE0
F03DE0
E079E0
E079E0
E0F9E0
E0F1E0
E1E1E0
E3E1E0
F3C1E0
FFC1E0
FF81E0
7F01F0
3E00F0
000000
000000
000000
000000
000000
000000
000000
000000
000000
ENDCHAR

STARTCHAR CODE086
ENCODING 86
SWIDTH 451 0
DWIDTH 24 0
BBX 24 48 0 -6
BITMAP
000000
000000
000000
000000
000000
0E001C
0E003C
1E003C
1E007C
1E007C
1E00F8
1E00F8
1E00F0
1C01F0
1C01E0
3C03E0
3C03C0
3C07C0
3C07C0
3C0780
3C0F80
3C0F00
3C0F00
3C1F00
3C1E00
3C1E00
3E3C00
3E3C00
1E3C00
1E7800
1E7800
1E7800
1EF000
1EF000
1FF000
0FE000
0FE000
0FE000
07E000
07C000
038000
000000
000000
000000
000000
000000
000000
000000
ENDCHAR

STARTCHAR CODE087
ENCODING 87
SWIDTH 451 0
DWIDTH 24 0
BBX 24 48 0 -6
BITMAP
000000
000000
000000
000000
000007
3C000F
3C001F
3C001F
3C003E
3C003C
3C003C
78003C
780078
780078
780078
780078
7838F0
7878F0
7878F0
70F8F0
F0F8F0
F0F0E0
F1F1E0
F1F1E0
F1F1E0
F3F1E0
F3F1E0
E3F1E0
E7F1C0
E7F1C0
E773C0
EF7BC0
EF7BC0
EF7BC0
FE7FC0
FE3F80
FE3F80
FC3F80
FC1F00
FC1F00
780000
000000
000000
000000
000000
000000
000000
000000
ENDCHAR

STARTCHAR CODE088
ENCODING 88
SWIDTH 451 0
DWIDTH 24 0
BBX 24 48 0 -6
BITMAP
000000
000000
000000
000000
070006
07000F
07801F
07803F
03807E
03C0FC
03C0F8
01E1F0
01E3F0
01E7E0
00F7C0
00FF80
00FF80
007F00
007E00
007E00
007C00
00FC00
01FC00
01FE00
03FE00
03FE00
07CF00
078F00
0F8F00
1F0780
1F0780
3E0780
3E03C0
7C03C0
7801E0
F801E0
F001F0
F000F0
E000F8
E00078
000078
000038
000000
000000
000000
000000
000000
000000
ENDCHAR

STARTCHAR CODE089
ENCODING 89
SWIDTH 451 0
DWIDTH 24 0
BBX 24 48 0 -6
BITMAP
000000
000000
000000
000000
00001C
00703C
00F03C
01F07C
03F078
07E0F8
0FC0F8
0F81F0
1F01F0
1E03E0
3E03E0
3C07E0
3C07C0
780FC0
781F80
781F80
703F80
707F00
70FF00
71FE00
7BFE00
7FDE00
7FBC00
3F3C00
1E3C00
003C00
007800
007800
007800
007800
007800
00F000
00F000
00F000
00F000
00F000
00F000
000000
000000
000000
000000
000000
000000
000000
ENDCHAR

STARTCHAR CODE090
ENCODING 90
SWIDTH 451 0
DWIDTH 24 0
BBX 24 48 0 -6
BITMAP
000000
000000
000000
000000
0C03FF
0FFFFF
0FFFFF
0FFFFF
0380FE
0000FC
0001F8
0003F0
0007E0
000FC0
000F80
001F00
003F00
003E00
007C00
00F800
01F800
01F000
03E000
07E000
07C000
0F8000
0F8000
1F0000
1E0000
3E0000
3C0000
7C01C0
780FE0
F87FE0
F1FFE0
FFFE00
FFF000
7F8000
3E0000
000000
000000
000000
000000
000000
000000
000000
000000
000000
ENDCHAR

STARTCHAR CODE091
ENCODING 91
SWIDTH 451 0
DWIDTH 24 0
BBX 24 48 0 -6
BITMAP
000000
000000
000000
00073C
000FFC
000FFC
001FF8
001E00
001E00
001E00
001E00
001C00
001C00
003C00
003C00
003C00
003C00
003800
003800
007800
007800
007800
007800
007800
007000
007000
007000
00F000
00F000
00F000
00F000
00F000
00F000
00F000
00E000
00E000
00E000
00E000
00E000
00E3C0
00EFC0
00FFC0
00FF00
00FC00
00F800
007000
000000
000000
ENDCHAR

STARTCHAR CODE092
ENCODING 92
SWIDTH 451 0
DWIDTH 24 0
BBX 24 48 0 -6
BITMAP
000000
000000
000000
000000
000000
000000
000000
000007
07000F
07000F
07001F
0F001E
0F001E
0F003C
0F003C
0FFFFF
7FFFFF
7FFFFF
7E38F0
0E3CF0
0E7CF0
1E7CE0
1E79E0
1EF9E0
1FFFFE
FFFFFE
FFFFFE
FFFFC0
1DFFC0
1FFFC0
1FFFC0
1FDFC0
1F9FC0
1F9F80
1F9F80
1F8F80
1F8F80
1F0780
0F0000
000000
000000
000000
000000
000000
000000
000000
000000
000000
ENDCHAR

STARTCHAR CODE093
ENCODING 93
SWIDTH 451 0
DWIDTH 24 0
BBX 24 48 0 -6
BITMAP
000000
000000
000700
000F80
001F80
007F80
01FF80
01FB80
01E380
000380
000380
000380
000380
000380
000780
000780
000780
000780
000780
000780
000780
000700
000700
000700
000F00
000F00
000F00
000F00
000F00
000E00
000E00
001E00
001E00
001E00
001E00
001C00
001C00
003C00
003C00
003C00
003C00
0FFC00
1FF800
1FF800
1E7000
000000
000000
000000
ENDCHAR

STARTCHAR CODE094
ENCODING 94
SWIDTH 451 0
DWIDTH 24 0
BBX 24 48 0 -6
BITMAP
000000
000000
000000
000000
003800
007E00
00FF80
03FFC0
03E3C0
0381C0
000000
000000
000000
000000
000000
000000
000000
000000
000000
000000
000000
000000
000000
000000
000000
000000
000000
000000
000000
000000
000000
000000
000000
000000
000000
000000
000000
000000
000000
000000
000000
000000
000000
000000
000000
000000
000000
000000
ENDCHAR

STARTCHAR CODE095
ENCODING 95
SWIDTH 451 0
DWIDTH 24 0
BBX 24 48 0 -6
BITMAP
000000
000000
000000
000000
000000
000000
000000
000000
000000
000000
000000
000000
000000
000000
000000
000000
000000
000000
000000
000000
000000
000000
000000
000000
000000
000000
000000
000000
000000
000000
000000
000000
000000
000000
000000
000000
000000
000000
000000
000000
000000
000000
FFFFFF
FFFFFF
FFFFFF
000000
000000
000000
ENDCHAR

STARTCHAR CODE096
ENCODING 96
SWIDTH 451 0
DWIDTH 24 0
BBX 24 48 0 -6
BITMAP
000000
000000
000000
000000
007800
007800
007800
007C00
003C00
003C00
001E00
001E00
000F00
000700
000000
000000
000000
000000
000000
000000
000000
000000
000000
000000
000000
000000
000000
000000
000000
000000
000000
000000
000000
000000
000000
000000
000000
000000
000000
000000
000000
000000
000000
000000
000000
000000
000000
000000
ENDCHAR

STARTCHAR CODE097
ENCODING 97
SWIDTH 451 0
DWIDTH 24 0
BBX 24 48 0 -6
BITMAP
000000
000000
000000
000000
000000
000000
000000
000000
000000
000000
000000
000000
000000
000000
000000
000000
000000
000000
000000
000000
000000
003C00
00FE00
01FE00
03EE00
03CE00
078E00
078E00
0F1E00
0F1C00
0E1C00
0E3C00
0E3E00
0F7E00
0FFF00
07FFC0
03E7C0
000000
000000
000000
000000
000000
000000
000000
000000
000000
000000
000000
ENDCHAR

STARTCHAR CODE098
ENCODING 98
SWIDTH 451 0
DWIDTH 24 0
BBX 24 48 0 -6
BITMAP
000000
000000
000000
000000
000000
000000
000000
000E00
000F00
001F00
001F00
001E00
001E00
003E00
003C00
003C00
003C00
003800
007800
007800
007000
007000
00FF00
00FF80
00FF80
00FBC0
01F3C0
01E1C0
01E3C0
01C3C0
03C3C0
03C780
038780
038F00
07FF00
07FE00
07FC00
07F000
070000
000000
000000
000000
000000
000000
000000
000000
000000
000000
ENDCHAR

STARTCHAR CODE099
ENCODING 99
SWIDTH 451 0
DWIDTH 24 0
BBX 24 48 0 -6
BITMAP
000000
000000
000000
000000
000000
000000
000000
000000
000000
000000
000000
000000
000000
000000
000000
000000
000000
000000
000000
000000
000000
001E00
007F00
00FF00
01F700
01E700
03CF00
03DE00
079C00
0780C0
0701C0
0703C0
070380
070780
079F00
07FE00
03FC00
01F000
000000
000000
000000
000000
000000
000000
000000
000000
000000
000000
ENDCHAR

STARTCHAR CODE100
ENCODING 100
SWIDTH 451 0
DWIDTH 24 0
BBX 24 48 0 -6
BITMAP
000000
000000
000000
000000
000000
000000
000000
0001E0
0001E0
0001E0
0001E0
0003C0
0003C0
0003C0
0003C0
000780
000780
000780
000700
000F00
000F00
000F00
007E00
01FE00
03FE00
07DE00
079E00
0F1C00
0F1C00
0E3C00
0E3C00
0E3C00
0E7C00
0F7E00
0FFE00
0FFF00
07E7C0
03C3C0
000000
000000
000000
000000
000000
000000
000000
000000
000000
000000
ENDCHAR

STARTCHAR CODE101
ENCODING 101
SWIDTH 451 0
DWIDTH 24 0
BBX 24 48 0 -6
BITMAP
000000
000000
000000
000000
000000
000000
000000
000000
000000
000000
000000
000000
000000
000000
000000
000000
000000
000000
000000
000000
000000
000000
007800
01FC00
03FC00
07DC00
079C00
0F3C00
0F7800
0FF0C0
0FE1C0
0F81C0
0E0380
0F0F80
0FFF00
07FE00
03F800
000000
000000
000000
000000
000000
000000
000000
000000
000000
000000
000000
ENDCHAR

STARTCHAR CODE102
ENCODING 102
SWIDTH 451 0
DWIDTH 24 0
BBX 24 48 0 -6
BITMAP
000000
000000
000000
000000
000000
0001C0
0003C0
0003C0
0007C0
000780
000F80
000F00
001E00
001E00
003C00
003C00
003800
007800
007800
007000
00F7F0
00FFF0
01FFF0
03FC00
07F000
07F800
07F800
01FC00
03FC00
039C00
039E00
039E00
078E00
078E00
070E00
070E00
070E00
070E00
070E00
070E00
070E00
071E00
071C00
07BC00
03FC00
03F800
01F000
000000
ENDCHAR

STARTCHAR CODE103
ENCODING 103
SWIDTH 451 0
DWIDTH 24 0
BBX 24 48 0 -6
BITMAP
000000
000000
000000
000000
000000
000000
000000
000000
000000
000000
000000
000000
000000
000000
000000
000000
000000
000000
000000
000000
003C00
00FE00
01FE00
03EF00
078700
070F00
0F1F30
0E3F70
0E3E70
0E3EF0
0F7FE0
0FFFC0
07FF80
03FF00
00FE00
03FC00
07F800
0FF800
1F7800
1E7800
3C7800
3CF000
38F000
39F000
3BE000
3FE000
3FC000
1F8000
ENDCHAR

STARTCHAR CODE104
ENCODING 104
SWIDTH 451 0
DWIDTH 24 0
BBX 24 48 0 -6
BITMAP
000000
000000
000000
000000
000000
000000
000000
003800
003C00
003C00
007C00
007800
007800
007800
007000
00F000
00F000
00F000
00E000
00E000
01E000
01C000
01CE00
01DF00
03FF00
03FF00
03FF00
03EE30
07DE30
07DE70
079CF0
079CE0
079DE0
0F1FC0
0F1FC0
0F1F80
0F0F00
070000
000000
000000
000000
000000
000000
000000
000000
000000
000000
000000
ENDCHAR

STARTCHAR CODE105
ENCODING 105
SWIDTH 451 0
DWIDTH 24 0
BBX 24 48 0 -6
BITMAP
000000
000000
000000
000000
000000
000000
000000
000000
000000
000000
000000
000000
000700
000780
000F80
000F80
000F00
000700
000000
000000
000000
000000
001C00
003C00
003C00
003800
007800
007800
007000
007000
00F000
00F000
00F000
00F000
00E000
00E000
00E000
00E000
000000
000000
000000
000000
000000
000000
000000
000000
000000
000000
ENDCHAR

STARTCHAR CODE106
ENCODING 106
SWIDTH 451 0
DWIDTH 24 0
BBX 24 48 0 -6
BITMAP
000000
000000
000000
000000
000000
000000
000000
000000
000000
000000
000000
000000
0001C0
0001E0
0003E0
0003E0
0003C0
0001C0
000000
000000
000700
000700
000700
000F00
000E00
000E30
000E70
001EF0
001DE0
001FC0
001F80
003F00
003E00
00FC00
03FC00
07F800
0FF800
1F7800
1E7000
3C7000
3C7000
38F000
38E000
39E000
3FE000
3FC000
1F8000
000000
ENDCHAR

STARTCHAR CODE107
ENCODING 107
SWIDTH 451 0
DWIDTH 24 0
BBX 24 48 0 -6
BITMAP
000000
000000
000000
000000
000000
000000
000780
000FC0
001FC0
003FC0
007DC0
007BC0
00F3C0
00F780
01E780
01EF00
03CF00
03DE00
03BC00
07BC00
07F800
07F000
07E780
0FDF80
0FFE00
0FF800
0FF000
1FE000
1FE018
1FE018
1FE038
1FE070
1EF070
3EF0E0
3C7BE0
3C7FC0
3C3F80
381F00
380000
000000
000000
000000
000000
000000
000000
000000
000000
000000
ENDCHAR

STARTCHAR CODE108
ENCODING 108
SWIDTH 451 0
DWIDTH 24 0
BBX 24 48 0 -6
BITMAP
000000
000000
000000
000000
000000
0001E0
0003F0
0007F0
0007F0
000F70
000F70
001E70
001EF0
003CE0
003DE0
0039E0
0079C0
007BC0
0073C0
00F780
00F700
00FF00
00FE00
00FC00
01FC00
01F800
01F000
01E000
01E600
01C600
01CE00
01CE00
01DE00
01FC00
01FC00
01F800
00F000
000000
000000
000000
000000
000000
000000
000000
000000
000000
000000
000000
ENDCHAR

STARTCHAR CODE109
ENCODING 109
SWIDTH 451 0
DWIDTH 24 0
BBX 24 48 0 -6
BITMAP
000000
000000
000000
000000
000000
000000
000000
000000
000000
000000
000000
000000
000000
000000
000000
000000
000000
000000
000000
000000
000000
000000
0700E0
0739E0
0F7BE0
0FFFE0
0FFFC0
1FFFC0
1FFF80
1FFF80
1EFF80
3EF700
3DF700
3DE700
3DE780
39E7C0
39E3C0
3801C0
380000
000000
000000
000000
000000
000000
000000
000000
000000
000000
ENDCHAR

STARTCHAR CODE110
ENCODING 110
SWIDTH 451 0
DWIDTH 24 0
BBX 24 48 0 -6
BITMAP
000000
000000
000000
000000
000000
000000
000000
000000
000000
000000
000000
000000
000000
000000
000000
000000
000000
000000
000000
000000
000000
000000
000E00
039E00
03BE00
03FE00
07FE00
07FC00
07FC00
0FFC00
0FB800
0F3800
0F3800
1E3800
1C3800
1C3800
1C3C00
1C1C00
001E00
000E00
000000
000000
000000
000000
000000
000000
000000
000000
ENDCHAR

STARTCHAR CODE111
ENCODING 111
SWIDTH 451 0
DWIDTH 24 0
BBX 24 48 0 -6
BITMAP
000000
000000
000000
000000
000000
000000
000000
000000
000000
000000
000000
000000
000000
000000
000000
000000
000000
000000
000000
000000
001E00
003F00
007F80
00FF80
00F380
01E380
01E780
01CF80
03CF80
038F80
038700
038F00
038F00
03DE00
03FE00
03FC00
01F800
00F000
000000
000000
000000
000000
000000
000000
000000
000000
000000
000000
ENDCHAR

STARTCHAR CODE112
ENCODING 112
SWIDTH 451 0
DWIDTH 24 0
BBX 24 48 0 -6
BITMAP
000000
000000
000000
000000
000000
000000
000000
000000
000000
000000
000000
000000
000000
000000
000000
000000
000000
000000
000000
00E000
00E000
00FE00
01FF00
01FF80
01F780
03E380
03C380
03C380
078780
078780
078F00
078F00
07BE00
0FFE00
0FFC00
0FF000
0E0000
0E0000
1E0000
1E0000
1E0000
1C0000
1C0000
1C0000
1C0000
1C0000
1C0000
000000
ENDCHAR

STARTCHAR CODE113
ENCODING 113
SWIDTH 451 0
DWIDTH 24 0
BBX 24 48 0 -6
BITMAP
000000
000000
000000
000000
000000
000000
000000
000000
000000
000000
000000
000000
000000
000000
000000
000000
000000
000000
000000
000000
000000
003E00
00FF00
01FF00
03E780
03C780
038780
078F80
070F00
070F00
071F00
07BE00
07FE00
03FE00
01FC00
001C00
003C00
003C00
003C00
003800
003800
003800
003800
003800
003800
003800
003800
000000
ENDCHAR

STARTCHAR CODE114
ENCODING 114
SWIDTH 451 0
DWIDTH 24 0
BBX 24 48 0 -6
BITMAP
000000
000000
000000
000000
000000
000000
000000
000000
000000
000000
000000
000000
000000
000000
000000
000000
000000
000000
000000
000000
000000
000000
01CF00
01DF00
03FF00
03FF70
03FEF0
07FFF0
07EFE0
07C7C0
07C000
0F8000
0F8000
0F0000
0F0000
0F0000
0E0000
0E0000
0E0000
000000
000000
000000
000000
000000
000000
000000
000000
000000
ENDCHAR

STARTCHAR CODE115
ENCODING 115
SWIDTH 451 0
DWIDTH 24 0
BBX 24 48 0 -6
BITMAP
000000
000000
000000
000000
000000
000000
000000
000000
000000
000000
000000
000000
000000
000000
000000
000000
000000
000000
000000
000000
001F00
007F80
00FFC0
01FBC0
01E1C0
01C7C0
01DF80
01FF00
00F000
07F800
077800
073C00
071E00
071E00
078E00
07FE00
03FE00
01FC00
000000
000000
000000
000000
000000
000000
000000
000000
000000
000000
ENDCHAR

STARTCHAR CODE116
ENCODING 116
SWIDTH 451 0
DWIDTH 24 0
BBX 24 48 0 -6
BITMAP
000000
000000
000000
000000
000000
000000
000000
000000
000000
000000
000000
000E00
000E00
000E00
001E00
001E00
001E00
003FC0
003FC0
03FFC0
03FE00
03F800
007800
00F000
00F000
00F000
00E000
01E000
01E0C0
01C0C0
01C1C0
01C1C0
01E380
01EF80
00FF00
00FE00
007800
000000
000000
000000
000000
000000
000000
000000
000000
000000
000000
000000
ENDCHAR

STARTCHAR CODE117
ENCODING 117
SWIDTH 451 0
DWIDTH 24 0
BBX 24 48 0 -6
BITMAP
000000
000000
000000
000000
000000
000000
000000
000000
000000
000000
000000
000000
000000
000000
000000
000000
000000
000000
000000
000000
000000
000000
000000
01C000
03CE00
03CE00
038E00
078E00
078E00
071E00
071C00
071C00
073E00
073E00
07FF00
07F780
03F3C0
01E1C0
000000
000000
000000
000000
000000
000000
000000
000000
000000
000000
ENDCHAR

STARTCHAR CODE118
ENCODING 118
SWIDTH 451 0
DWIDTH 24 0
BBX 24 48 0 -6
BITMAP
000000
000000
000000
000000
000000
000000
000000
000000
000000
000000
000000
000000
000000
000000
000000
000000
000000
000000
000000
000000
000000
000000
01CE00
01DE00
01DE00
03DE00
039E70
039F70
038FF0
079FF0
071FE0
071C00
073C00
073C00
07F800
03F800
03F000
01E000
000000
000000
000000
000000
000000
000000
000000
000000
000000
000000
ENDCHAR

STARTCHAR CODE119
ENCODING 119
SWIDTH 451 0
DWIDTH 24 0
BBX 24 48 0 -6
BITMAP
000000
000000
000000
000000
000000
000000
000000
000000
000000
000000
000000
000000
000000
000000
000000
000000
000000
000000
000000
000000
000000
0000E0
0380E0
079CE0
0FBCE0
0F3CE0
1E7CE0
1E7CE0
3CFCE0
3CF9E0
3DF9E0
39F9C0
3BFBC0
3FFF80
3FBF80
3F3F00
1E3E00
001C00
000000
000000
000000
000000
000000
000000
000000
000000
000000
000000
ENDCHAR

STARTCHAR CODE120
ENCODING 120
SWIDTH 451 0
DWIDTH 24 0
BBX 24 48 0 -6
BITMAP
000000
000000
000000
000000
000000
000000
000000
000000
000000
000000
000000
000000
000000
000000
000000
000000
000000
000000
000000
000000
000000
000000
038600
038E00
039E00
03BE00
03FC00
01F800
01F1C0
01E1C0
01E3C0
03E380
07F780
0FFF00
1F7F00
1E7E00
1C3C00
000000
000000
000000
000000
000000
000000
000000
000000
000000
000000
000000
ENDCHAR

STARTCHAR CODE121
ENCODING 121
SWIDTH 451 0
DWIDTH 24 0
BBX 24 48 0 -6
BITMAP
000000
000000
000000
000000
000000
000000
000000
000000
000000
000000
000000
000000
000000
000000
000000
000000
000000
000000
000000
000000
000000
000000
000700
03C700
07CF00
078F00
0F1F18
0F1F38
0E3E38
0EFE70
0FFEF0
0FFFE0
07DFC0
001F80
00FF00
03FE00
07FC00
0FFC00
0F3C00
1E3C00
1C3800
1C7800
1C7800
1CF000
1FF000
0FE000
07C000
000000
ENDCHAR

STARTCHAR CODE122
ENCODING 122
SWIDTH 451 0
DWIDTH 24 0
BBX 24 48 0 -6
BITMAP
000000
000000
000000
000000
000000
000000
000000
000000
000000
000000
000000
000000
000000
000000
000000
000000
000000
000000
000000
000000
000000
000700
00FF80
03FF80
03FF80
03BF00
003E00
007C00
00F800
00F000
01F000
03E000
03C000
07DF00
07FF00
07FF00
07F000
038000
000000
000000
000000
000000
000000
000000
000000
000000
000000
000000
ENDCHAR

STARTCHAR CODE123
ENCODING 123
SWIDTH 451 0
DWIDTH 24 0
BBX 24 48 0 -6
BITMAP
000000
000000
00003F
0000FF
0003FF
0003F0
0007C0
000F80
000F00
001E00
001E00
001E00
001C00
003C00
003C00
003C00
007C00
007800
00F800
03F000
07E000
3FC000
FF8000
FF0000
FE0000
FF0000
3F8000
0FC000
07C000
03E000
01E000
01E000
01E000
01E000
01E000
03C000
03C000
03C000
03C000
03C000
03C000
01E000
01F800
00FF80
007F80
000F80
000000
000000
ENDCHAR

STARTCHAR CODE124
ENCODING 124
SWIDTH 451 0
DWIDTH 24 0
BBX 24 48 0 -6
BITMAP
000000
000000
000000
000000
000000
000780
000780
000780
000780
000F80
000F80
000F00
000F00
000F00
000F00
000F00
001E00
001E00
001E00
001E00
001E00
003C00
003C00
003C00
003C00
007C00
007800
007800
007800
00F800
00F000
00F000
00F000
01F000
01F000
01E000
01E000
03E000
03E000
03C000
03C000
03C000
03C000
000000
000000
000000
000000
000000
ENDCHAR

STARTCHAR CODE125
ENCODING 125
SWIDTH 451 0
DWIDTH 24 0
BBX 24 48 0 -6
BITMAP
000000
000000
01F000
03FE00
03FF00
001F80
000780
0007C0
0003C0
0003C0
0003C0
0003C0
0003C0
000780
000780
000780
000780
0007C0
0007C0
0003E0
0003F0
0001FC
0000FF
00007F
0000FF
0003FF
0007FC
000FE0
001F80
001F00
003E00
003C00
003C00
003C00
003800
007800
007800
007800
00F800
00F000
01F000
03E000
0FE000
FFC000
FF0000
7C0000
000000
000000
ENDCHAR

STARTCHAR CODE126
ENCODING 126
SWIDTH 451 0
DWIDTH 24 0
BBX 24 48 0 -6
BITMAP
000000
000000
000000
000000
000000
000000
000000
000000
000000
000000
000000
000000
000000
000000
000000
000000
000000
000000
000000
000000
03C000
07F0E0
07FCE0
073FE0
070FE0
0003C0
000000
000000
000000
000000
000000
000000
000000
000000
000000
000000
000000
000000
000000
000000
000000
000000
000000
000000
000000
000000
000000
000000
ENDCHAR

STARTCHAR CODE127
ENCODING 127
SWIDTH 451 0
DWIDTH 24 0
BBX 24 48 0 -6
BITMAP
000000
000000
000000
000000
000000
000000
000000
000000
000000
000000
000000
000000
000000
000000
000000
000000
000000
000000
000000
000000
000000
000000
000000
000000
000000
000000
000000
000000
000000
000000
000000
000000
000000
000000
000000
000000
000000
000000
000000
000000
000000
000000
000000
000000
000000
000000
000000
000000
ENDCHAR

STARTCHAR CODE128
ENCODING 128
SWIDTH 451 0
DWIDTH 24 0
BBX 24 48 0 -6
BITMAP
000000
000000
000000
000000
000000
0003F0
000FF8
001FFC
003F3C
007E1C
007C1C
00F81C
01F03C
01F03C
03E07C
03C0F8
07C1F8
0781F0
0F81F0
0F00E0
0F0000
1F0000
1E0000
1E0000
1E0018
3E0018
3C0038
3C0038
3C0078
3C0070
3C00F0
3E00F0
3E01E0
1F03E0
1F8FC0
0FFF80
07FF00
03FC00
007000
00F800
00FC00
00FC00
003C00
001C00
003C00
007800
007000
000000
ENDCHAR

STARTCHAR CODE129
ENCODING 129
SWIDTH 451 0
DWIDTH 24 0
BBX 24 48 0 -6
BITMAP
000000
000000
000000
000000
000000
000000
000000
000000
000000
000000
000000
000000
007380
007BC0
00FFC0
00FFC0
00F780
007380
000000
000000
000000
000000
000000
01C000
03CE00
03CE00
038E00
078E00
078E00
071E00
071C00
071C00
073E00
073E00
07FF00
07F780
03F3C0
01E1C0
000000
000000
000000
000000
000000
000000
000000
000000
000000
000000
ENDCHAR

STARTCHAR CODE130
ENCODING 130
SWIDTH 451 0
DWIDTH 24 0
BBX 24 48 0 -6
BITMAP
000000
000000
000000
000000
000000
000000
000000
000000
000000
000000
000000
000000
000000
000F00
000F00
001F00
001E00
003E00
003C00
003800
000000
000000
007800
01FC00
03FC00
07DC00
079C00
0F3C00
0F7800
0FF0C0
0FE1C0
0F81C0
0E0380
0F0F80
0FFF00
07FE00
03F800
000000
000000
000000
000000
000000
000000
000000
000000
000000
000000
000000
ENDCHAR

STARTCHAR CODE131
ENCODING 131
SWIDTH 451 0
DWIDTH 24 0
BBX 24 48 0 -6
BITMAP
000000
000000
000000
000000
000000
000000
000000
000000
000000
000000
000000
000000
000000
000000
000000
003F00
007F80
007FC0
0073C0
0001C0
000000
003C00
00FE00
01FE00
03EE00
03CE00
078E00
078E00
0F1E00
0F1C00
0E1C00
0E3C00
0E3E00
0F7E00
0FFF00
07FFC0
03E7C0
000000
000000
000000
000000
000000
000000
000000
000000
000000
000000
000000
ENDCHAR

STARTCHAR CODE132
ENCODING 132
SWIDTH 451 0
DWIDTH 24 0
BBX 24 48 0 -6
BITMAP
000000
000000
000000
000000
000000
000000
000000
000000
000000
000000
000000
000000
007380
007BC0
00FFC0
00FFC0
00F780
007380
000000
000000
000000
003C00
00FE00
01FE00
03EE00
03CE00
078E00
078E00
0F1E00
0F1C00
0E1C00
0E3C00
0E3E00
0F7E00
0FFF00
07FFC0
03E7C0
000000
000000
000000
000000
000000
000000
000000
000000
000000
000000
000000
ENDCHAR

STARTCHAR CODE133
ENCODING 133
SWIDTH 451 0
DWIDTH 24 0
BBX 24 48 0 -6
BITMAP
000000
000000
000000
000000
000000
000000
000000
000000
000000
000000
000000
000000
000000
003800
003C00
003E00
001F00
000F80
000780
000380
000000
003C00
00FE00
01FE00
03EE00
03CE00
078E00
078E00
0F1E00
0F1C00
0E1C00
0E3C00
0E3E00
0F7E00
0FFF00
07FFC0
03E7C0
000000
000000
000000
000000
000000
000000
000000
000000
000000
000000
000000
ENDCHAR

STARTCHAR CODE134
ENCODING 134
SWIDTH 451 0
DWIDTH 24 0
BBX 24 48 0 -6
BITMAP
000000
000000
000000
000000
000000
000000
000000
000000
000000
000000
000000
000000
000000
000F00
001F80
003F80
003B80
003F80
003F00
001E00
000000
003C00
00FE00
01FE00
03EE00
03CE00
078E00
078E00
0F1E00
0F1C00
0E1C00
0E3C00
0E3E00
0F7E00
0FFF00
07FFC0
03E7C0
000000
000000
000000
000000
000000
000000
000000
000000
000000
000000
000000
ENDCHAR

STARTCHAR CODE135
ENCODING 135
SWIDTH 451 0
DWIDTH 24 0
BBX 24 48 0 -6
BITMAP
000000
000000
000000
000000
000000
000000
000000
000000
000000
000000
000000
000000
000000
000000
000000
000000
000000
000000
000000
000000
000000
001E00
007F00
00FF00
01F700
01E700
03CF00
03DE00
079C00
0780C0
0701C0
0703C0
070380
070780
079F00
07FE00
03FC00
01F000
006000
00E000
00F000
00F800
007800
003800
007800
00F000
00E000
000000
ENDCHAR

STARTCHAR CODE136
ENCODING 136
SWIDTH 451 0
DWIDTH 24 0
BBX 24 48 0 -6
BITMAP
000000
000000
000000
000000
000000
000000
000000
000000
000000
000000
000000
000000
000000
000000
000000
003F00
007F80
007FC0
0073C0
0001C0
000000
000000
007800
01FC00
03FC00
07DC00
079C00
0F3C00
0F7800
0FF0C0
0FE1C0
0F81C0
0E0380
0F0F80
0FFF00
07FE00
03F800
000000
000000
000000
000000
000000
000000
000000
000000
000000
000000
000000
ENDCHAR

STARTCHAR CODE137
ENCODING 137
SWIDTH 451 0
DWIDTH 24 0
BBX 24 48 0 -6
BITMAP
000000
000000
000000
000000
000000
000000
000000
000000
000000
000000
000000
000000
007380
007BC0
00FFC0
00FFC0
00F780
007380
000000
000000
000000
000000
007800
01FC00
03FC00
07DC00
079C00
0F3C00
0F7800
0FF0C0
0FE1C0
0F81C0
0E0380
0F0F80
0FFF00
07FE00
03F800
000000
000000
000000
000000
000000
000000
000000
000000
000000
000000
000000
ENDCHAR

STARTCHAR CODE138
ENCODING 138
SWIDTH 451 0
DWIDTH 24 0
BBX 24 48 0 -6
BITMAP
000000
000000
000000
000000
000000
000000
000000
000000
000000
000000
000000
000000
000000
003800
003C00
003E00
001F00
000F80
000780
000380
000000
000000
007800
01FC00
03FC00
07DC00
079C00
0F3C00
0F7800
0FF0C0
0FE1C0
0F81C0
0E0380
0F0F80
0FFF00
07FE00
03F800
000000
000000
000000
000000
000000
000000
000000
000000
000000
000000
000000
ENDCHAR

STARTCHAR CODE139
ENCODING 139
SWIDTH 451 0
DWIDTH 24 0
BBX 24 48 0 -6
BITMAP
000000
000000
000000
000000
000000
000000
000000
000000
000000
000000
000000
000000
007380
007BC0
00FFC0
00FFC0
00F780
007380
000000
000000
000000
000000
001C00
003C00
003C00
003800
007800
007800
007000
007000
00F000
00F000
00F000
00F000
00E000
00E000
00E000
00E000
000000
000000
000000
000000
000000
000000
000000
000000
000000
000000
ENDCHAR

STARTCHAR CODE140
ENCODING 140
SWIDTH 451 0
DWIDTH 24 0
BBX 24 48 0 -6
BITMAP
000000
000000
000000
000000
000000
000000
000000
000000
000000
000000
000000
000000
000000
000000
000000
003F00
007F80
007FC0
0073C0
0001C0
000000
000000
001C00
003C00
003C00
003800
007800
007800
007000
007000
00F000
00F000
00F000
00F000
00E000
00E000
00E000
00E000
000000
000000
000000
000000
000000
000000
000000
000000
000000
000000
ENDCHAR

STARTCHAR CODE141
ENCODING 141
SWIDTH 451 0
DWIDTH 24 0
BBX 24 48 0 -6
BITMAP
000000
000000
000000
000000
000000
000000
000000
000000
000000
000000
000000
000000
000000
003800
003C00
003E00
001F00
000F80
000780
000380
000000
000000
001C00
003C00
003C00
003800
007800
007800
007000
007000
00F000
00F000
00F000
00F000
00E000
00E000
00E000
00E000
000000
000000
000000
000000
000000
000000
000000
000000
000000
000000
ENDCHAR

STARTCHAR CODE142
ENCODING 142
SWIDTH 451 0
DWIDTH 24 0
BBX 24 48 0 -6
BITMAP
000738
0007BC
000FFC
000FFC
000F78
000738
000000
000000
000000
0000F0
0001F8
0003F8
0007F8
000FF8
000FF8
001F70
003E70
003C70
007C70
00F870
00F070
01F07E
01E1FF
03FFFF
03FFFF
0FFFF0
7FFE70
FFF078
FF8078
FF0078
0F0078
1F0078
1E0078
1E0038
3E003C
3C003C
3C003C
3C003C
38001C
38001C
000000
000000
000000
000000
000000
000000
000000
000000
ENDCHAR

STARTCHAR CODE143
ENCODING 143
SWIDTH 451 0
DWIDTH 24 0
BBX 24 48 0 -6
BITMAP
0001E0
0003F0
0003F0
000730
000770
0007F0
0007E0
0003C0
000000
0000F0
0001F8
0003F8
0007F8
000FF8
000FF8
001F70
003E70
003C70
007C70
00F870
00F070
01F07E
01E1FF
03FFFF
03FFFF
0FFFF0
7FFE70
FFF078
FF8078
FF0078
0F0078
1F0078
1E0078
1E0038
3E003C
3C003C
3C003C
3C003C
38001C
38001C
000000
000000
000000
000000
000000
000000
000000
000000
ENDCHAR

STARTCHAR CODE144
ENCODING 144
SWIDTH 451 0
DWIDTH 24 0
BBX 24 48 0 -6
BITMAP
0003C0
0003C0
0007C0
000780
000F80
000F00
000E00
000000
000000
0003FF
01FFFF
03FFFF
03FFC0
03E000
01E000
03C000
03C000
03C000
078000
078000
079FE0
07FFE0
0FFFE0
0FFC00
0F0000
0F0000
1E0000
1E0000
1E0000
1E0000
1C0000
1C0000
3C1FE0
3DFFE0
3FFFE0
3FFE00
3FE000
1F0000
000000
000000
000000
000000
000000
000000
000000
000000
000000
000000
ENDCHAR

STARTCHAR CODE145
ENCODING 145
SWIDTH 451 0
DWIDTH 24 0
BBX 24 48 0 -6
BITMAP
000000
000000
000000
000000
000000
000000
000000
000000
000000
000000
000000
000000
000000
000000
000000
000000
000000
000000
000000
000000
03C000
0FEF80
1FFFC0
1FFFE0
1C7DE0
007CE0
07F9E0
1FFBE0
3FFFF8
3EFFF8
78FF38
70F078
70F078
79F8F0
7FFFF0
3FFFE0
3F9FC0
1F0F80
000000
000000
000000
000000
000000
000000
000000
000000
000000
000000
ENDCHAR

STARTCHAR CODE146
ENCODING 146
SWIDTH 451 0
DWIDTH 24 0
BBX 24 48 0 -6
BITMAP
000000
000000
000000
000000
00007E
0007FF
007FFF
01FFFF
01FFE0
00FFC0
007FC0
00FFC0
00FF80
01F780
01E780
03E780
03C780
07CF80
078FFE
07FFFE
FFFFFE
FFFFFE
FFFF00
FE0F00
1E0F00
1E0F00
3E0F00
3C1F00
3C1E00
7C1E00
781E00
781E00
781E0F
F81E7F
F01FFF
F01FFF
F00FF8
F00FC0
000000
000000
000000
000000
000000
000000
000000
000000
000000
000000
ENDCHAR

STARTCHAR CODE147
ENCODING 147
SWIDTH 451 0
DWIDTH 24 0
BBX 24 48 0 -6
BITMAP
000000
000000
000000
000000
000000
000000
000000
000000
000000
000000
000000
000000
000000
000000
000000
001F00
007F80
007FC0
0073C0
0001C0
001E00
003F00
007F80
00FF80
00F380
01E380
01E780
01CF80
03CF80
038F80
038700
038F00
038F00
03DE00
03FE00
03FC00
01F800
00F000
000000
000000
000000
000000
000000
000000
000000
000000
000000
000000
ENDCHAR

STARTCHAR CODE148
ENCODING 148
SWIDTH 451 0
DWIDTH 24 0
BBX 24 48 0 -6
BITMAP
000000
000000
000000
000000
000000
000000
000000
000000
000000
000000
000000
000000
007380
007BC0
00FFC0
00FFC0
00F780
007380
000000
000000
001E00
003F00
007F80
00FF80
00F380
01E380
01E780
01CF80
03CF80
038F80
038700
038F00
038F00
03DE00
03FE00
03FC00
01F800
00F000
000000
000000
000000
000000
000000
000000
000000
000000
000000
000000
ENDCHAR

STARTCHAR CODE149
ENCODING 149
SWIDTH 451 0
DWIDTH 24 0
BBX 24 48 0 -6
BITMAP
000000
000000
000000
000000
000000
000000
000000
000000
000000
000000
000000
000000
000000
003C00
003E00
003F00
001F80
000FC0
0007C0
0003C0
001E00
003F00
007F80
00FF80
00F380
01E380
01E780
01CF80
03CF80
038F80
038700
038F00
038F00
03DE00
03FE00
03FC00
01F800
00F000
000000
000000
000000
000000
000000
000000
000000
000000
000000
000000
ENDCHAR

STARTCHAR CODE150
ENCODING 150
SWIDTH 451 0
DWIDTH 24 0
BBX 24 48 0 -6
BITMAP
000000
000000
000000
000000
000000
000000
000000
000000
000000
000000
000000
000000
000000
000000
000000
007F00
00FF80
00FFC0
00E3C0
00E1C0
000000
000000
000000
01C000
03CE00
03CE00
038E00
078E00
078E00
071E00
071C00
071C00
073E00
073E00
07FF00
07F780
03F3C0
01E1C0
000000
000000
000000
000000
000000
000000
000000
000000
000000
000000
ENDCHAR

STARTCHAR CODE151
ENCODING 151
SWIDTH 451 0
DWIDTH 24 0
BBX 24 48 0 -6
BITMAP
000000
000000
000000
000000
000000
000000
000000
000000
000000
000000
000000
000000
000000
003800
003C00
003E00
001F00
000F80
000780
000380
000000
000000
000000
01C000
03CE00
03CE00
038E00
078E00
078E00
071E00
071C00
071C00
073E00
073E00
07FF00
07F780
03F3C0
01E1C0
000000
000000
000000
000000
000000
000000
000000
000000
000000
000000
ENDCHAR

STARTCHAR CODE152
ENCODING 152
SWIDTH 451 0
DWIDTH 24 0
BBX 24 48 0 -6
BITMAP
000000
000000
000000
000000
000000
000000
000000
000000
000000
000000
000000
000000
007380
007BC0
00FFC0
00FFC0
00F7C0
007380
000000
000000
000000
000000
000700
03C700
07CF00
078F00
0F1F18
0F1F38
0E3E38
0EFE70
0FFEF0
0FFFE0
07DFC0
001F80
00FF00
03FE00
07FC00
0FFC00
0F3C00
1E3C00
1C3800
1C7800
1C7800
1CF000
1FF000
0FE000
07C000
000000
ENDCHAR

STARTCHAR CODE153
ENCODING 153
SWIDTH 451 0
DWIDTH 24 0
BBX 24 48 0 -6
BITMAP
000E70
000F78
001FF8
001FF8
001EF0
000E70
000000
000000
000000
01FF80
07FFE0
0FFFF0
0FFBF8
0FF0F8
0DF07C
01E07C
03E03C
07C03C
07803C
0F803C
0F003C
1F003C
1E003C
1E007C
3C0078
3C0078
3C00F8
3800F0
3801F0
3801F0
3803E0
3807E0
3807C0
3C0F80
3C1F80
3E7F00
1FFE00
1FFC00
0FF800
03E000
000000
000000
000000
000000
000000
000000
000000
000000
ENDCHAR

STARTCHAR CODE154
ENCODING 154
SWIDTH 451 0
DWIDTH 24 0
BBX 24 48 0 -6
BITMAP
000E70
000F78
001FF8
001FF8
001EF0
000E70
000000
000000
000000
00F007
01F00F
03F01F
03E01F
07C03E
0F807E
0F807C
1F00FC
1E00FC
1E01FC
3C01F8
3C03F8
3C03F8
3807F8
7807F8
7807F8
780F70
780FF0
701FF0
701EF0
703EF0
703CF0
707CF0
7878F0
78F8F0
7DF0F0
3FF078
3FE078
1FC078
078038
000000
000000
000000
000000
000000
000000
000000
000000
000000
ENDCHAR

STARTCHAR CODE155
ENCODING 155
SWIDTH 451 0
DWIDTH 24 0
BBX 24 48 0 -6
BITMAP
000000
000000
000000
000000
000000
000000
000000
000000
000000
000000
000000
000000
000000
000000
000E00
000E00
000E00
003E00
00FF00
01FF80
03FF80
07FF80
07BB80
0F3F80
0F3F80
0E7700
0E70C0
0E71C0
0EF1C0
0FE380
07EF80
07FF00
03FE00
01F800
01C000
03C000
03C000
038000
038000
000000
000000
000000
000000
000000
000000
000000
000000
000000
ENDCHAR

STARTCHAR CODE156
ENCODING 156
SWIDTH 451 0
DWIDTH 24 0
BBX 24 48 0 -6
BITMAP
000000
000000
000000
000000
000000
000000
000000
000000
000000
000000
0001F8
0007F8
000FF8
001F80
001E00
003C00
003C00
003800
007800
007800
007800
0077F0
00FFF0
3FFFF0
3FFE00
3FF000
00F000
01E000
01E000
01E000
03C000
03C000
03C000
0783F0
07FFF0
0FFFF0
7FFFF0
7FF000
7E0000
000000
000000
000000
000000
000000
000000
000000
000000
000000
ENDCHAR

STARTCHAR CODE157
ENCODING 157
SWIDTH 451 0
DWIDTH 24 0
BBX 24 48 0 -6
BITMAP
000000
000000
000000
000000
000000
000000
000000
000000
000000
000000
00001C
0F003E
0F807E
0780FC
07C0F8
03C1F0
03E3E0
01E3E0
01E7C0
00F780
00FF80
00FF00
007F00
007E00
007E00
007FE0
3FFFE0
3FFFE0
3FFFE0
3FFFC0
7FFFC0
7FFFC0
7FFFC0
7FC000
03C000
07C000
078000
078000
0F8000
0F0000
0F0000
0F0000
000000
000000
000000
000000
000000
000000
ENDCHAR

STARTCHAR CODE158
ENCODING 158
SWIDTH 451 0
DWIDTH 24 0
BBX 24 48 0 -6
BITMAP
000000
000000
000000
000000
000000
070000
07C000
0FF000
7FF800
7FF800
7F7C00
0F3C38
0F1C38
1E1C38
1E1C78
1E1C78
1E3C78
1E3CF0
1C3CFF
3C78FF
3C7FFF
3CFFF8
FFFFE0
FFE3C0
FFC3C0
7F03C0
780380
780780
70078E
70078E
F0071E
F0071E
F0079E
F007BC
F003FC
F003F8
E001F0
E00000
E00000
E00000
000000
000000
000000
000000
000000
000000
000000
000000
ENDCHAR

STARTCHAR CODE159
ENCODING 159
SWIDTH 451 0
DWIDTH 24 0
BBX 24 48 0 -6
BITMAP
000000
000000
000000
000000
000000
000000
000000
00003E
0000FF
0001FF
0003F7
0007C0
000780
000F80
000F00
000F00
001F00
001E00
001E00
001FF8
001FF8
01FFF8
01FF80
01FC00
003C00
003C00
003C00
003C00
007800
007800
007800
007800
007800
007800
00F000
00F000
00F000
00F000
00F000
00F000
01E000
01E000
03E000
0FC000
FF8000
FF0000
FC0000
000000
ENDCHAR

STARTCHAR CODE160
ENCODING 160
SWIDTH 451 0
DWIDTH 24 0
BBX 24 48 0 -6
BITMAP
000000
000000
000000
000000
000000
000000
000000
000000
000000
000000
000000
000000
000000
000F00
000F00
001F00
001E00
003E00
003C00
003800
000000
003C00
00FE00
01FE00
03EE00
03CE00
078E00
078E00
0F1E00
0F1C00
0E1C00
0E3C00
0E3E00
0F7E00
0FFF00
07FFC0
03E7C0
000000
000000
000000
000000
000000
000000
000000
000000
000000
000000
000000
ENDCHAR

STARTCHAR CODE161
ENCODING 161
SWIDTH 451 0
DWIDTH 24 0
BBX 24 48 0 -6
BITMAP
000000
000000
000000
000000
000000
000000
000000
000000
000000
000000
000000
000000
000000
000F00
000F00
001F00
001E00
003E00
003C00
003800
000000
000000
001C00
003C00
003C00
003800
007800
007800
007000
007000
00F000
00F000
00F000
00F000
00E000
00E000
00E000
00E000
000000
000000
000000
000000
000000
000000
000000
000000
000000
000000
ENDCHAR

STARTCHAR CODE162
ENCODING 162
SWIDTH 451 0
DWIDTH 24 0
BBX 24 48 0 -6
BITMAP
000000
000000
000000
000000
000000
000000
000000
000000
000000
000000
000000
000000
000000
000E00
000F00
001F00
001E00
003E00
003C00
003800
001E00
003F00
007F80
00FF80
01F380
01E380
01C780
03CF80
03CF00
038700
038700
038F00
038F00
03DE00
03FE00
03FC00
01F800
00F000
000000
000000
000000
000000
000000
000000
000000
000000
000000
000000
ENDCHAR

STARTCHAR CODE163
ENCODING 163
SWIDTH 451 0
DWIDTH 24 0
BBX 24 48 0 -6
BITMAP
000000
000000
000000
000000
000000
000000
000000
000000
000000
000000
000000
000000
000000
000F00
000F00
001F00
001E00
003E00
003C00
003800
000000
000000
000000
01C000
03CE00
03CE00
038E00
078E00
078E00
071E00
071C00
071C00
073E00
073E00
07FF00
07F780
03F3C0
01E1C0
000000
000000
000000
000000
000000
000000
000000
000000
000000
000000
ENDCHAR

STARTCHAR CODE164
ENCODING 164
SWIDTH 451 0
DWIDTH 24 0
BBX 24 48 0 -6
BITMAP
000000
000000
000000
000000
000000
000000
000000
000000
000000
000000
000000
000000
000000
000000
01F000
03F860
03FC60
031FE0
030FE0
0007C0
000000
000000
000E00
039E00
03BE00
03FE00
07FE00
07FC00
07FC00
0FFC00
0FB800
0F3800
0F3800
1E3C00
1C3C00
1C3C00
1C3C00
1C1E00
001E00
000E00
000000
000000
000000
000000
000000
000000
000000
000000
ENDCHAR

STARTCHAR CODE165
ENCODING 165
SWIDTH 451 0
DWIDTH 24 0
BBX 24 48 0 -6
BITMAP
000000
000000
003E0C
007F8C
007FFC
0063FC
0060F8
000000
000000
00000E
00E00E
00F01E
01F01E
01F01E
03F03C
03F03C
07F03C
07F038
0F7078
0F7078
0E7070
1E7870
1C78F0
1C78F0
3C38F0
3C38E0
383CE0
383CE0
383CE0
783DE0
781FE0
701FE0
701FC0
F00FC0
F00FC0
F00FC0
F007C0
F007C0
F00380
700000
000000
000000
000000
000000
000000
000000
000000
000000
ENDCHAR

STARTCHAR CODE166
ENCODING 166
SWIDTH 451 0
DWIDTH 24 0
BBX 24 48 0 -6
BITMAP
000000
000000
000000
000000
000000
001F00
003F80
003F80
007B80
007380
007780
007700
007F00
007FC0
003FC0
0001C0
007FC0
007FC0
007FC0
000000
000000
000000
000000
000000
000000
000000
000000
000000
000000
000000
000000
000000
000000
000000
000000
000000
000000
000000
000000
000000
000000
000000
000000
000000
000000
000000
000000
000000
ENDCHAR

STARTCHAR CODE167
ENCODING 167
SWIDTH 451 0
DWIDTH 24 0
BBX 24 48 0 -6
BITMAP
000000
000000
000000
000000
000000
000F00
001F80
001F80
003F80
003B80
003B80
003F80
003F00
003F00
001E00
000000
00FF80
00FF80
00FF80
000000
000000
000000
000000
000000
000000
000000
000000
000000
000000
000000
000000
000000
000000
000000
000000
000000
000000
000000
000000
000000
000000
000000
000000
000000
000000
000000
000000
000000
ENDCHAR

STARTCHAR CODE168
ENCODING 168
SWIDTH 451 0
DWIDTH 24 0
BBX 24 48 0 -6
BITMAP
000000
000000
000000
000000
000000
000000
000000
000000
000000
000000
000E00
000F00
001F00
001F00
001F00
001E00
000E00
000000
000000
000000
000000
001C00
001E00
001E00
001E00
003E00
003E00
007C00
007C00
00F800
01F800
03F000
07E000
0FC000
1F8000
3F0000
3E0000
7C0700
780780
700F80
700F80
781F00
783F00
3CFE00
3FFC00
1FF800
07E000
000000
ENDCHAR

STARTCHAR CODE169
ENCODING 169
SWIDTH 451 0
DWIDTH 24 0
BBX 24 48 0 -6
BITMAP
000000
000000
000000
000000
000000
000000
000000
000000
000000
000000
000000
000000
000000
000000
000000
000000
000000
000000
3FFFFC
3FFFFC
3FFFFC
380000
380000
380000
380000
380000
380000
380000
380000
000000
000000
000000
000000
000000
000000
000000
000000
000000
000000
000000
000000
000000
000000
000000
000000
000000
000000
000000
ENDCHAR

STARTCHAR CODE170
ENCODING 170
SWIDTH 451 0
DWIDTH 24 0
BBX 24 48 0 -6
BITMAP
000000
000000
000000
000000
000000
000000
000000
000000
000000
000000
000000
000000
000000
000000
000000
000000
000000
000000
3FFFFC
3FFFFC
3FFFFC
00001C
00001C
00001C
00001C
00001C
00001C
00001C
00001C
000000
000000
000000
000000
000000
000000
000000
000000
000000
000000
000000
000000
000000
000000
000000
000000
000000
000000
000000
ENDCHAR

STARTCHAR CODE171
ENCODING 171
SWIDTH 451 0
DWIDTH 24 0
BBX 24 48 0 -6
BITMAP
000000
0000E0
0001F0
0003F0
000FE0
003FE0
003FE0
003FC0
0003C0
0003C0
000780
000780
000700
000F00
000F00
000F00
000E00
000E00
000E00
000E00
000000
01FFF0
1FFFFE
1FFFFE
1F001E
000000
000000
00FF00
01FF80
03FFC0
03C3C0
0383C0
0387C0
0007C0
000F80
001F80
003F00
007E00
00FC00
00F800
01F3F0
03FFF0
03FFF0
03FE00
01E000
000000
000000
000000
ENDCHAR

STARTCHAR CODE172
ENCODING 172
SWIDTH 451 0
DWIDTH 24 0
BBX 24 48 0 -6
BITMAP
000000
0000E0
0001F0
0003F0
000FE0
003FE0
003FE0
003FC0
0003C0
0003C0
000780
000780
000700
000F00
000F00
000F00
000E00
000E00
000E00
000E00
000000
01FFF0
1FFFFE
1FFFFE
1F001E
000000
0001E0
0007E0
000FE0
001FE0
003FC0
007FC0
00FB80
01F780
01E780
03CF00
07FFE0
07FFE0
07FFE0
03FE00
001E00
001C00
001C00
001C00
001C00
001C00
000000
000000
ENDCHAR

STARTCHAR CODE173
ENCODING 173
SWIDTH 451 0
DWIDTH 24 0
BBX 24 48 0 -6
BITMAP
000000
000000
000000
000000
000000
000000
000000
000000
000000
000700
000780
000F80
000F80
000F00
000700
000000
001C00
001C00
003C00
003C00
003C00
007C00
007800
007800
00F800
00F800
00F000
01F000
01F000
01E000
03E000
03E000
03C000
03C000
07C000
07C000
078000
0F8000
0F8000
0F0000
0F0000
0F0000
0E0000
0E0000
0E0000
000000
000000
000000
ENDCHAR

STARTCHAR CODE174
ENCODING 174
SWIDTH 451 0
DWIDTH 24 0
BBX 24 48 0 -6
BITMAP
000000
000000
000000
000000
000000
000000
000000
000000
000000
000000
000000
000000
000000
000000
000000
000000
000000
000000
00F780
01F7C0
01FFC0
03EF80
03CF00
01EF80
01FF80
00FFC0
00FBC0
003180
000000
000000
000000
000000
000000
000000
000000
000000
000000
000000
000000
000000
000000
000000
000000
000000
000000
000000
000000
000000
ENDCHAR

STARTCHAR CODE175
ENCODING 175
SWIDTH 451 0
DWIDTH 24 0
BBX 24 48 0 -6
BITMAP
000000
000000
000000
000000
000000
000000
000000
000000
000000
000000
000000
000000
000000
000000
000000
000000
000000
000000
079E00
07DF00
03FF00
03EF80
01F780
00F780
01FF80
03FF80
03FF00
01CE00
000000
000000
000000
000000
000000
000000
000000
000000
000000
000000
000000
000000
000000
000000
000000
000000
000000
000000
000000
000000
ENDCHAR

STARTCHAR CODE176
ENCODING 176
SWIDTH 451 0
DWIDTH 24 0
BBX 24 48 0 -6
BITMAP
666666
666666
000000
000000
666666
666666
000000
000000
666666
666666
000000
000000
666666
666666
000000
000000
666666
666666
000000
000000
666666
666666
000000
000000
666666
666666
000000
000000
666666
666666
000000
000000
666666
666666
000000
000000
666666
666666
000000
000000
666666
666666
000000
000000
666666
666666
000000
000000
ENDCHAR

STARTCHAR CODE177
ENCODING 177
SWIDTH 451 0
DWIDTH 24 0
BBX 24 48 0 -6
BITMAP
30C30C
79E79E
79E79E
30C30C
000000
000000
30C30C
79E79E
79E79E
30C30C
000000
000000
30C30C
79E79E
79E79E
30C30C
000000
000000
30C30C
79E79E
79E79E
30C30C
000000
000000
30C30C
79E79E
79E79E
30C30C
000000
000000
30C30C
79E79E
79E79E
30C30C
000000
000000
30C30C
79E79E
79E79E
30C30C
000000
000000
30C30C
79E79E
79E79E
30C30C
000000
000000
ENDCHAR

STARTCHAR CODE178
ENCODING 178
SWIDTH 451 0
DWIDTH 24 0
BBX 24 48 0 -6
BITMAP
38E38E
7DF7DF
7DF7DF
7DF7DF
38E38E
000000
38E38E
7DF7DF
7DF7DF
7DF7DF
38E38E
000000
38E38E
7DF7DF
7DF7DF
7DF7DF
38E38E
000000
38E38E
7DF7DF
7DF7DF
7DF7DF
38E38E
000000
38E38E
7DF7DF
7DF7DF
7DF7DF
38E38E
000000
38E38E
7DF7DF
7DF7DF
7DF7DF
38E38E
000000
38E38E
7DF7DF
7DF7DF
7DF7DF
38E38E
000000
38E38E
7DF7DF
7DF7DF
7DF7DF
38E38E
000000
ENDCHAR

STARTCHAR CODE179
ENCODING 179
SWIDTH 451 0
DWIDTH 24 0
BBX 24 48 0 -6
BITMAP
001C00
001C00
001C00
001C00
001C00
001C00
001C00
001C00
001C00
001C00
001C00
001C00
001C00
001C00
001C00
001C00
001C00
001C00
001C00
001C00
001C00
001C00
001C00
001C00
001C00
001C00
001C00
001C00
001C00
001C00
001C00
001C00
001C00
001C00
001C00
001C00
001C00
001C00
001C00
001C00
001C00
001C00
001C00
001C00
001C00
001C00
001C00
001C00
ENDCHAR

STARTCHAR CODE180
ENCODING 180
SWIDTH 451 0
DWIDTH 24 0
BBX 24 48 0 -6
BITMAP
001C00
001C00
001C00
001C00
001C00
001C00
001C00
001C00
001C00
001C00
001C00
001C00
001C00
001C00
001C00
001C00
001C00
001C00
001C00
001C00
001C00
001C00
FFFC00
FFFC00
FFFC00
001C00
001C00
001C00
001C00
001C00
001C00
001C00
001C00
001C00
001C00
001C00
001C00
001C00
001C00
001C00
001C00
001C00
001C00
001C00
001C00
001C00
001C00
001C00
ENDCHAR

STARTCHAR CODE181
ENCODING 181
SWIDTH 451 0
DWIDTH 24 0
BBX 24 48 0 -6
BITMAP
001C00
001C00
001C00
001C00
001C00
001C00
001C00
001C00
001C00
001C00
001C00
001C00
001C00
001C00
001C00
001C00
001C00
001C00
001C00
FFFC00
FFFC00
FFFC00
001C00
001C00
001C00
FFFC00
FFFC00
FFFC00
001C00
001C00
001C00
001C00
001C00
001C00
001C00
001C00
001C00
001C00
001C00
001C00
001C00
001C00
001C00
001C00
001C00
001C00
001C00
001C00
ENDCHAR

STARTCHAR CODE182
ENCODING 182
SWIDTH 451 0
DWIDTH 24 0
BBX 24 48 0 -6
BITMAP
00E380
00E380
00E380
00E380
00E380
00E380
00E380
00E380
00E380
00E380
00E380
00E380
00E380
00E380
00E380
00E380
00E380
00E380
00E380
00E380
00E380
00E380
FFE380
FFE380
FFE380
00E380
00E380
00E380
00E380
00E380
00E380
00E380
00E380
00E380
00E380
00E380
00E380
00E380
00E380
00E380
00E380
00E380
00E380
00E380
00E380
00E380
00E380
00E380
ENDCHAR

STARTCHAR CODE183
ENCODING 183
SWIDTH 451 0
DWIDTH 24 0
BBX 24 48 0 -6
BITMAP
000000
000000
000000
000000
000000
000000
000000
000000
000000
000000
000000
000000
000000
000000
000000
000000
000000
000000
000000
000000
000000
000000
FFFF80
FFFF80
FFFF80
00E380
00E380
00E380
00E380
00E380
00E380
00E380
00E380
00E380
00E380
00E380
00E380
00E380
00E380
00E380
00E380
00E380
00E380
00E380
00E380
00E380
00E380
00E380
ENDCHAR

STARTCHAR CODE184
ENCODING 184
SWIDTH 451 0
DWIDTH 24 0
BBX 24 48 0 -6
BITMAP
000000
000000
000000
000000
000000
000000
000000
000000
000000
000000
000000
000000
000000
000000
000000
000000
000000
000000
000000
FFFC00
FFFC00
FFFC00
001C00
001C00
001C00
FFFC00
FFFC00
FFFC00
001C00
001C00
001C00
001C00
001C00
001C00
001C00
001C00
001C00
001C00
001C00
001C00
001C00
001C00
001C00
001C00
001C00
001C00
001C00
001C00
ENDCHAR

STARTCHAR CODE185
ENCODING 185
SWIDTH 451 0
DWIDTH 24 0
BBX 24 48 0 -6
BITMAP
00E380
00E380
00E380
00E380
00E380
00E380
00E380
00E380
00E380
00E380
00E380
00E380
00E380
00E380
00E380
00E380
00E380
00E380
00E380
FFE380
FFE380
FFE380
000380
000380
000380
FFE380
FFE380
FFE380
00E380
00E380
00E380
00E380
00E380
00E380
00E380
00E380
00E380
00E380
00E380
00E380
00E380
00E380
00E380
00E380
00E380
00E380
00E380
00E380
ENDCHAR

STARTCHAR CODE186
ENCODING 186
SWIDTH 451 0
DWIDTH 24 0
BBX 24 48 0 -6
BITMAP
00E380
00E380
00E380
00E380
00E380
00E380
00E380
00E380
00E380
00E380
00E380
00E380
00E380
00E380
00E380
00E380
00E380
00E380
00E380
00E380
00E380
00E380
00E380
00E380
00E380
00E380
00E380
00E380
00E380
00E380
00E380
00E380
00E380
00E380
00E380
00E380
00E380
00E380
00E380
00E380
00E380
00E380
00E380
00E380
00E380
00E380
00E380
00E380
ENDCHAR

STARTCHAR CODE187
ENCODING 187
SWIDTH 451 0
DWIDTH 24 0
BBX 24 48 0 -6
BITMAP
000000
000000
000000
000000
000000
000000
000000
000000
000000
000000
000000
000000
000000
000000
000000
000000
000000
000000
000000
FFFF80
FFFF80
FFFF80
000380
000380
000380
FFE380
FFE380
FFE380
00E380
00E380
00E380
00E380
00E380
00E380
00E380
00E380
00E380
00E380
00E380
00E380
00E380
00E380
00E380
00E380
00E380
00E380
00E380
00E380
ENDCHAR

STARTCHAR CODE188
ENCODING 188
SWIDTH 451 0
DWIDTH 24 0
BBX 24 48 0 -6
BITMAP
00E380
00E380
00E380
00E380
00E380
00E380
00E380
00E380
00E380
00E380
00E380
00E380
00E380
00E380
00E380
00E380
00E380
00E380
00E380
FFE380
FFE380
FFE380
000380
000380
000380
FFFF80
FFFF80
FFFF80
000000
000000
000000
000000
000000
000000
000000
000000
000000
000000
000000
000000
000000
000000
000000
000000
000000
000000
000000
000000
ENDCHAR

STARTCHAR CODE189
ENCODING 189
SWIDTH 451 0
DWIDTH 24 0
BBX 24 48 0 -6
BITMAP
00E380
00E380
00E380
00E380
00E380
00E380
00E380
00E380
00E380
00E380
00E380
00E380
00E380
00E380
00E380
00E380
00E380
00E380
00E380
00E380
00E380
00E380
FFFF80
FFFF80
FFFF80
000000
000000
000000
000000
000000
000000
000000
000000
000000
000000
000000
000000
000000
000000
000000
000000
000000
000000
000000
000000
000000
000000
000000
ENDCHAR

STARTCHAR CODE190
ENCODING 190
SWIDTH 451 0
DWIDTH 24 0
BBX 24 48 0 -6
BITMAP
001C00
001C00
001C00
001C00
001C00
001C00
001C00
001C00
001C00
001C00
001C00
001C00
001C00
001C00
001C00
001C00
001C00
001C00
001C00
FFFC00
FFFC00
FFFC00
001C00
001C00
001C00
FFFC00
FFFC00
FFFC00
000000
000000
000000
000000
000000
000000
000000
000000
000000
000000
000000
000000
000000
000000
000000
000000
000000
000000
000000
000000
ENDCHAR

STARTCHAR CODE191
ENCODING 191
SWIDTH 451 0
DWIDTH 24 0
BBX 24 48 0 -6
BITMAP
000000
000000
000000
000000
000000
000000
000000
000000
000000
000000
000000
000000
000000
000000
000000
000000
000000
000000
000000
000000
000000
000000
FFFC00
FFFC00
FFFC00
001C00
001C00
001C00
001C00
001C00
001C00
001C00
001C00
001C00
001C00
001C00
001C00
001C00
001C00
001C00
001C00
001C00
001C00
001C00
001C00
001C00
001C00
001C00
ENDCHAR

STARTCHAR CODE192
ENCODING 192
SWIDTH 451 0
DWIDTH 24 0
BBX 24 48 0 -6
BITMAP
001C00
001C00
001C00
001C00
001C00
001C00
001C00
001C00
001C00
001C00
001C00
001C00
001C00
001C00
001C00
001C00
001C00
001C00
001C00
001C00
001C00
001C00
001FFF
001FFF
001FFF
000000
000000
000000
000000
000000
000000
000000
000000
000000
000000
000000
000000
000000
000000
000000
000000
000000
000000
000000
000000
000000
000000
000000
ENDCHAR

STARTCHAR CODE193
ENCODING 193
SWIDTH 451 0
DWIDTH 24 0
BBX 24 48 0 -6
BITMAP
001C00
001C00
001C00
001C00
001C00
001C00
001C00
001C00
001C00
001C00
001C00
001C00
001C00
001C00
001C00
001C00
001C00
001C00
001C00
001C00
001C00
001C00
FFFFFF
FFFFFF
FFFFFF
000000
000000
000000
000000
000000
000000
000000
000000
000000
000000
000000
000000
000000
000000
000000
000000
000000
000000
000000
000000
000000
000000
000000
ENDCHAR

STARTCHAR CODE194
ENCODING 194
SWIDTH 451 0
DWIDTH 24 0
BBX 24 48 0 -6
BITMAP
000000
000000
000000
000000
000000
000000
000000
000000
000000
000000
000000
000000
000000
000000
000000
000000
000000
000000
000000
000000
000000
000000
FFFFFF
FFFFFF
FFFFFF
001C00
001C00
001C00
001C00
001C00
001C00
001C00
001C00
001C00
001C00
001C00
001C00
001C00
001C00
001C00
001C00
001C00
001C00
001C00
001C00
001C00
001C00
001C00
ENDCHAR

STARTCHAR CODE195
ENCODING 195
SWIDTH 451 0
DWIDTH 24 0
BBX 24 48 0 -6
BITMAP
001C00
001C00
001C00
001C00
001C00
001C00
001C00
001C00
001C00
001C00
001C00
001C00
001C00
001C00
001C00
001C00
001C00
001C00
001C00
001C00
001C00
001C00
001FFF
001FFF
001FFF
001C00
001C00
001C00
001C00
001C00
001C00
001C00
001C00
001C00
001C00
001C00
001C00
001C00
001C00
001C00
001C00
001C00
001C00
001C00
001C00
001C00
001C00
001C00
ENDCHAR

STARTCHAR CODE196
ENCODING 196
SWIDTH 451 0
DWIDTH 24 0
BBX 24 48 0 -6
BITMAP
000000
000000
000000
000000
000000
000000
000000
000000
000000
000000
000000
000000
000000
000000
000000
000000
000000
000000
000000
000000
000000
000000
FFFFFF
FFFFFF
FFFFFF
000000
000000
000000
000000
000000
000000
000000
000000
000000
000000
000000
000000
000000
000000
000000
000000
000000
000000
000000
000000
000000
000000
000000
ENDCHAR

STARTCHAR CODE197
ENCODING 197
SWIDTH 451 0
DWIDTH 24 0
BBX 24 48 0 -6
BITMAP
001C00
001C00
001C00
001C00
001C00
001C00
001C00
001C00
001C00
001C00
001C00
001C00
001C00
001C00
001C00
001C00
001C00
001C00
001C00
001C00
001C00
001C00
FFFFFF
FFFFFF
FFFFFF
001C00
001C00
001C00
001C00
001C00
001C00
001C00
001C00
001C00
001C00
001C00
001C00
001C00
001C00
001C00
001C00
001C00
001C00
001C00
001C00
001C00
001C00
001C00
ENDCHAR

STARTCHAR CODE198
ENCODING 198
SWIDTH 451 0
DWIDTH 24 0
BBX 24 48 0 -6
BITMAP
001C00
001C00
001C00
001C00
001C00
001C00
001C00
001C00
001C00
001C00
001C00
001C00
001C00
001C00
001C00
001C00
001C00
001C00
001C00
001FFF
001FFF
001FFF
001C00
001C00
001C00
001FFF
001FFF
001FFF
001C00
001C00
001C00
001C00
001C00
001C00
001C00
001C00
001C00
001C00
001C00
001C00
001C00
001C00
001C00
001C00
001C00
001C00
001C00
001C00
ENDCHAR

STARTCHAR CODE199
ENCODING 199
SWIDTH 451 0
DWIDTH 24 0
BBX 24 48 0 -6
BITMAP
00E380
00E380
00E380
00E380
00E380
00E380
00E380
00E380
00E380
00E380
00E380
00E380
00E380
00E380
00E380
00E380
00E380
00E380
00E380
00E380
00E380
00E380
00E3FF
00E3FF
00E3FF
00E380
00E380
00E380
00E380
00E380
00E380
00E380
00E380
00E380
00E380
00E380
00E380
00E380
00E380
00E380
00E380
00E380
00E380
00E380
00E380
00E380
00E380
00E380
ENDCHAR

STARTCHAR CODE200
ENCODING 200
SWIDTH 451 0
DWIDTH 24 0
BBX 24 48 0 -6
BITMAP
00E380
00E380
00E380
00E380
00E380
00E380
00E380
00E380
00E380
00E380
00E380
00E380
00E380
00E380
00E380
00E380
00E380
00E380
00E380
00E3FF
00E3FF
00E3FF
00E000
00E000
00E000
00FFFF
00FFFF
00FFFF
000000
000000
000000
000000
000000
000000
000000
000000
000000
000000
000000
000000
000000
000000
000000
000000
000000
000000
000000
000000
ENDCHAR

STARTCHAR CODE201
ENCODING 201
SWIDTH 451 0
DWIDTH 24 0
BBX 24 48 0 -6
BITMAP
000000
000000
000000
000000
000000
000000
000000
000000
000000
000000
000000
000000
000000
000000
000000
000000
000000
000000
000000
00FFFF
00FFFF
00FFFF
00E000
00E000
00E000
00E3FF
00E3FF
00E3FF
00E380
00E380
00E380
00E380
00E380
00E380
00E380
00E380
00E380
00E380
00E380
00E380
00E380
00E380
00E380
00E380
00E380
00E380
00E380
00E380
ENDCHAR

STARTCHAR CODE202
ENCODING 202
SWIDTH 451 0
DWIDTH 24 0
BBX 24 48 0 -6
BITMAP
00E380
00E380
00E380
00E380
00E380
00E380
00E380
00E380
00E380
00E380
00E380
00E380
00E380
00E380
00E380
00E380
00E380
00E380
00E380
FFE3FF
FFE3FF
FFE3FF
000000
000000
000000
FFFFFF
FFFFFF
FFFFFF
000000
000000
000000
000000
000000
000000
000000
000000
000000
000000
000000
000000
000000
000000
000000
000000
000000
000000
000000
000000
ENDCHAR

STARTCHAR CODE203
ENCODING 203
SWIDTH 451 0
DWIDTH 24 0
BBX 24 48 0 -6
BITMAP
000000
000000
000000
000000
000000
000000
000000
000000
000000
000000
000000
000000
000000
000000
000000
000000
000000
000000
000000
FFFFFF
FFFFFF
FFFFFF
000000
000000
000000
FFE3FF
FFE3FF
FFE3FF
00E380
00E380
00E380
00E380
00E380
00E380
00E380
00E380
00E380
00E380
00E380
00E380
00E380
00E380
00E380
00E380
00E380
00E380
00E380
00E380
ENDCHAR

STARTCHAR CODE204
ENCODING 204
SWIDTH 451 0
DWIDTH 24 0
BBX 24 48 0 -6
BITMAP
00E380
00E380
00E380
00E380
00E380
00E380
00E380
00E380
00E380
00E380
00E380
00E380
00E380
00E380
00E380
00E380
00E380
00E380
00E380
00E3FF
00E3FF
00E3FF
00E000
00E000
00E000
00E3FF
00E3FF
00E3FF
00E380
00E380
00E380
00E380
00E380
00E380
00E380
00E380
00E380
00E380
00E380
00E380
00E380
00E380
00E380
00E380
00E380
00E380
00E380
00E380
ENDCHAR

STARTCHAR CODE205
ENCODING 205
SWIDTH 451 0
DWIDTH 24 0
BBX 24 48 0 -6
BITMAP
000000
000000
000000
000000
000000
000000
000000
000000
000000
000000
000000
000000
000000
000000
000000
000000
000000
000000
000000
FFFFFF
FFFFFF
FFFFFF
000000
000000
000000
FFFFFF
FFFFFF
FFFFFF
000000
000000
000000
000000
000000
000000
000000
000000
000000
000000
000000
000000
000000
000000
000000
000000
000000
000000
000000
000000
ENDCHAR

STARTCHAR CODE206
ENCODING 206
SWIDTH 451 0
DWIDTH 24 0
BBX 24 48 0 -6
BITMAP
00E380
00E380
00E380
00E380
00E380
00E380
00E380
00E380
00E380
00E380
00E380
00E380
00E380
00E380
00E380
00E380
00E380
00E380
00E380
FFE3FF
FFE3FF
FFE3FF
000000
000000
000000
FFE3FF
FFE3FF
FFE3FF
00E380
00E380
00E380
00E380
00E380
00E380
00E380
00E380
00E380
00E380
00E380
00E380
00E380
00E380
00E380
00E380
00E380
00E380
00E380
00E380
ENDCHAR

STARTCHAR CODE207
ENCODING 207
SWIDTH 451 0
DWIDTH 24 0
BBX 24 48 0 -6
BITMAP
001C00
001C00
001C00
001C00
001C00
001C00
001C00
001C00
001C00
001C00
001C00
001C00
001C00
001C00
001C00
001C00
001C00
001C00
001C00
FFFFFF
FFFFFF
FFFFFF
000000
000000
000000
FFFFFF
FFFFFF
FFFFFF
000000
000000
000000
000000
000000
000000
000000
000000
000000
000000
000000
000000
000000
000000
000000
000000
000000
000000
000000
000000
ENDCHAR

STARTCHAR CODE208
ENCODING 208
SWIDTH 451 0
DWIDTH 24 0
BBX 24 48 0 -6
BITMAP
00E380
00E380
00E380
00E380
00E380
00E380
00E380
00E380
00E380
00E380
00E380
00E380
00E380
00E380
00E380
00E380
00E380
00E380
00E380
00E380
00E380
00E380
FFFFFF
FFFFFF
FFFFFF
000000
000000
000000
000000
000000
000000
000000
000000
000000
000000
000000
000000
000000
000000
000000
000000
000000
000000
000000
000000
000000
000000
000000
ENDCHAR

STARTCHAR CODE209
ENCODING 209
SWIDTH 451 0
DWIDTH 24 0
BBX 24 48 0 -6
BITMAP
000000
000000
000000
000000
000000
000000
000000
000000
000000
000000
000000
000000
000000
000000
000000
000000
000000
000000
000000
FFFFFF
FFFFFF
FFFFFF
000000
000000
000000
FFFFFF
FFFFFF
FFFFFF
001C00
001C00
001C00
001C00
001C00
001C00
001C00
001C00
001C00
001C00
001C00
001C00
001C00
001C00
001C00
001C00
001C00
001C00
001C00
001C00
ENDCHAR

STARTCHAR CODE210
ENCODING 210
SWIDTH 451 0
DWIDTH 24 0
BBX 24 48 0 -6
BITMAP
000000
000000
000000
000000
000000
000000
000000
000000
000000
000000
000000
000000
000000
000000
000000
000000
000000
000000
000000
000000
000000
000000
FFFFFF
FFFFFF
FFFFFF
00E380
00E380
00E380
00E380
00E380
00E380
00E380
00E380
00E380
00E380
00E380
00E380
00E380
00E380
00E380
00E380
00E380
00E380
00E380
00E380
00E380
00E380
00E380
ENDCHAR

STARTCHAR CODE211
ENCODING 211
SWIDTH 451 0
DWIDTH 24 0
BBX 24 48 0 -6
BITMAP
00E380
00E380
00E380
00E380
00E380
00E380
00E380
00E380
00E380
00E380
00E380
00E380
00E380
00E380
00E380
00E380
00E380
00E380
00E380
00E380
00E380
00E380
00FFFF
00FFFF
00FFFF
000000
000000
000000
000000
000000
000000
000000
000000
000000
000000
000000
000000
000000
000000
000000
000000
000000
000000
000000
000000
000000
000000
000000
ENDCHAR

STARTCHAR CODE212
ENCODING 212
SWIDTH 451 0
DWIDTH 24 0
BBX 24 48 0 -6
BITMAP
001C00
001C00
001C00
001C00
001C00
001C00
001C00
001C00
001C00
001C00
001C00
001C00
001C00
001C00
001C00
001C00
001C00
001C00
001C00
001FFF
001FFF
001FFF
001C00
001C00
001C00
001FFF
001FFF
001FFF
000000
000000
000000
000000
000000
000000
000000
000000
000000
000000
000000
000000
000000
000000
000000
000000
000000
000000
000000
000000
ENDCHAR

STARTCHAR CODE213
ENCODING 213
SWIDTH 451 0
DWIDTH 24 0
BBX 24 48 0 -6
BITMAP
000000
000000
000000
000000
000000
000000
000000
000000
000000
000000
000000
000000
000000
000000
000000
000000
000000
000000
000000
001FFF
001FFF
001FFF
001C00
001C00
001C00
001FFF
001FFF
001FFF
001C00
001C00
001C00
001C00
001C00
001C00
001C00
001C00
001C00
001C00
001C00
001C00
001C00
001C00
001C00
001C00
001C00
001C00
001C00
001C00
ENDCHAR

STARTCHAR CODE214
ENCODING 214
SWIDTH 451 0
DWIDTH 24 0
BBX 24 48 0 -6
BITMAP
000000
000000
000000
000000
000000
000000
000000
000000
000000
000000
000000
000000
000000
000000
000000
000000
000000
000000
000000
000000
000000
000000
00FFFF
00FFFF
00FFFF
00E380
00E380
00E380
00E380
00E380
00E380
00E380
00E380
00E380
00E380
00E380
00E380
00E380
00E380
00E380
00E380
00E380
00E380
00E380
00E380
00E380
00E380
00E380
ENDCHAR

STARTCHAR CODE215
ENCODING 215
SWIDTH 451 0
DWIDTH 24 0
BBX 24 48 0 -6
BITMAP
00E380
00E380
00E380
00E380
00E380
00E380
00E380
00E380
00E380
00E380
00E380
00E380
00E380
00E380
00E380
00E380
00E380
00E380
00E380
00E380
00E380
00E380
FFFFFF
FFFFFF
FFFFFF
00E380
00E380
00E380
00E380
00E380
00E380
00E380
00E380
00E380
00E380
00E380
00E380
00E380
00E380
00E380
00E380
00E380
00E380
00E380
00E380
00E380
00E380
00E380
ENDCHAR

STARTCHAR CODE216
ENCODING 216
SWIDTH 451 0
DWIDTH 24 0
BBX 24 48 0 -6
BITMAP
001C00
001C00
001C00
001C00
001C00
001C00
001C00
001C00
001C00
001C00
001C00
001C00
001C00
001C00
001C00
001C00
001C00
001C00
001C00
FFFFFF
FFFFFF
FFFFFF
001C00
001C00
001C00
FFFFFF
FFFFFF
FFFFFF
001C00
001C00
001C00
001C00
001C00
001C00
001C00
001C00
001C00
001C00
001C00
001C00
001C00
001C00
001C00
001C00
001C00
001C00
001C00
001C00
ENDCHAR

STARTCHAR CODE217
ENCODING 217
SWIDTH 451 0
DWIDTH 24 0
BBX 24 48 0 -6
BITMAP
001C00
001C00
001C00
001C00
001C00
001C00
001C00
001C00
001C00
001C00
001C00
001C00
001C00
001C00
001C00
001C00
001C00
001C00
001C00
001C00
001C00
001C00
FFFC00
FFFC00
FFFC00
000000
000000
000000
000000
000000
000000
000000
000000
000000
000000
000000
000000
000000
000000
000000
000000
000000
000000
000000
000000
000000
000000
000000
ENDCHAR

STARTCHAR CODE218
ENCODING 218
SWIDTH 451 0
DWIDTH 24 0
BBX 24 48 0 -6
BITMAP
000000
000000
000000
000000
000000
000000
000000
000000
000000
000000
000000
000000
000000
000000
000000
000000
000000
000000
000000
000000
000000
000000
001FFF
001FFF
001FFF
001C00
001C00
001C00
001C00
001C00
001C00
001C00
001C00
001C00
001C00
001C00
001C00
001C00
001C00
001C00
001C00
001C00
001C00
001C00
001C00
001C00
001C00
001C00
ENDCHAR

STARTCHAR CODE219
ENCODING 219
SWIDTH 451 0
DWIDTH 24 0
BBX 24 48 0 -6
BITMAP
FFFFFF
FFFFFF
FFFFFF
FFFFFF
FFFFFF
FFFFFF
FFFFFF
FFFFFF
FFFFFF
FFFFFF
FFFFFF
FFFFFF
FFFFFF
FFFFFF
FFFFFF
FFFFFF
FFFFFF
FFFFFF
FFFFFF
FFFFFF
FFFFFF
FFFFFF
FFFFFF
FFFFFF
FFFFFF
FFFFFF
FFFFFF
FFFFFF
FFFFFF
FFFFFF
FFFFFF
FFFFFF
FFFFFF
FFFFFF
FFFFFF
FFFFFF
FFFFFF
FFFFFF
FFFFFF
FFFFFF
FFFFFF
FFFFFF
FFFFFF
FFFFFF
FFFFFF
FFFFFF
FFFFFF
FFFFFF
ENDCHAR

STARTCHAR CODE220
ENCODING 220
SWIDTH 451 0
DWIDTH 24 0
BBX 24 48 0 -6
BITMAP
000000
000000
000000
000000
000000
000000
000000
000000
000000
000000
000000
000000
000000
000000
000000
000000
000000
000000
000000
000000
000000
000000
000000
FFFFFF
FFFFFF
FFFFFF
FFFFFF
FFFFFF
FFFFFF
FFFFFF
FFFFFF
FFFFFF
FFFFFF
FFFFFF
FFFFFF
FFFFFF
FFFFFF
FFFFFF
FFFFFF
FFFFFF
FFFFFF
FFFFFF
FFFFFF
FFFFFF
FFFFFF
FFFFFF
FFFFFF
FFFFFF
ENDCHAR

STARTCHAR CODE221
ENCODING 221
SWIDTH 451 0
DWIDTH 24 0
BBX 24 48 0 -6
BITMAP
FFF800
FFF800
FFF800
FFF800
FFF800
FFF800
FFF800
FFF800
FFF800
FFF800
FFF800
FFF800
FFF800
FFF800
FFF800
FFF800
FFF800
FFF800
FFF800
FFF800
FFF800
FFF800
FFF800
FFF800
FFF800
FFF800
FFF800
FFF800
FFF800
FFF800
FFF800
FFF800
FFF800
FFF800
FFF800
FFF800
FFF800
FFF800
FFF800
FFF800
FFF800
FFF800
FFF800
FFF800
FFF800
FFF800
FFF800
FFF800
ENDCHAR

STARTCHAR CODE222
ENCODING 222
SWIDTH 451 0
DWIDTH 24 0
BBX 24 48 0 -6
BITMAP
000FFF
000FFF
000FFF
000FFF
000FFF
000FFF
000FFF
000FFF
000FFF
000FFF
000FFF
000FFF
000FFF
000FFF
000FFF
000FFF
000FFF
000FFF
000FFF
000FFF
000FFF
000FFF
000FFF
000FFF
000FFF
000FFF
000FFF
000FFF
000FFF
000FFF
000FFF
000FFF
000FFF
000FFF
000FFF
000FFF
000FFF
000FFF
000FFF
000FFF
000FFF
000FFF
000FFF
000FFF
000FFF
000FFF
000FFF
000FFF
ENDCHAR

STARTCHAR CODE223
ENCODING 223
SWIDTH 451 0
DWIDTH 24 0
BBX 24 48 0 -6
BITMAP
FFFFFF
FFFFFF
FFFFFF
FFFFFF
FFFFFF
FFFFFF
FFFFFF
FFFFFF
FFFFFF
FFFFFF
FFFFFF
FFFFFF
FFFFFF
FFFFFF
FFFFFF
FFFFFF
FFFFFF
FFFFFF
FFFFFF
FFFFFF
FFFFFF
FFFFFF
FFFFFF
FFFFFF
000000
000000
000000
000000
000000
000000
000000
000000
000000
000000
000000
000000
000000
000000
000000
000000
000000
000000
000000
000000
000000
000000
000000
000000
ENDCHAR

STARTCHAR CODE224
ENCODING 224
SWIDTH 451 0
DWIDTH 24 0
BBX 24 48 0 -6
BITMAP
000000
000000
000000
000000
000000
000000
000000
000000
000000
000000
000000
000000
000000
000000
000000
000000
000000
000000
000000
000000
0000E0
003EE0
00FFE0
01FFE0
03F7C0
03C3C0
0783C0
078780
070780
0F0780
0F0F80
0E0F00
0E1F00
0E1F00
0F3F9C
0FFFFC
07F3FC
03E0F8
000000
000000
000000
000000
000000
000000
000000
000000
000000
000000
ENDCHAR

STARTCHAR CODE225
ENCODING 225
SWIDTH 451 0
DWIDTH 24 0
BBX 24 48 0 -6
BITMAP
000000
000000
000000
000000
000FC0
003FF0
007FF8
00FC78
00F03C
01E01C
01E01C
03C03C
03C03C
038078
0780F8
0783F0
078FE0
07FFC0
07FF00
0FFF00
0FFFC0
0F07E0
0F01F0
0E00F0
0E0078
1E0078
1E0038
1E0038
1C0038
1C0038
1C0038
1C0078
1C0078
3C00F0
3E01F0
3F87E0
3FFFC0
3FFF80
39FE00
380000
380000
380000
380000
380000
380000
000000
000000
000000
ENDCHAR

STARTCHAR CODE226
ENCODING 226
SWIDTH 451 0
DWIDTH 24 0
BBX 24 48 0 -6
BITMAP
000000
000000
000000
000000
0003FF
00FFFF
03FFFF
03FE00
03E000
01E000
01C000
03C000
03C000
038000
078000
078000
070000
0F0000
0F0000
0E0000
1E0000
1E0000
1E0000
1C0000
3C0000
3C0000
3C0000
380000
380000
780000
780000
780000
700000
700000
700000
700000
700000
700000
000000
000000
000000
000000
000000
000000
000000
000000
000000
000000
ENDCHAR

STARTCHAR CODE227
ENCODING 227
SWIDTH 451 0
DWIDTH 24 0
BBX 24 48 0 -6
BITMAP
000000
000000
000000
000000
000000
000000
000000
000000
000000
000000
000000
000000
000000
000000
000000
000000
000000
000000
000000
000000
000000
000FFC
07FFFC
07FFFC
07FB80
007380
007380
007380
007780
00F780
00F700
00FF00
01EF00
01EE00
03CF00
07CFF8
0787F8
0703F8
000000
000000
000000
000000
000000
000000
000000
000000
000000
000000
ENDCHAR

STARTCHAR CODE228
ENCODING 228
SWIDTH 451 0
DWIDTH 24 0
BBX 24 48 0 -6
BITMAP
000000
000000
000000
000000
0003FF
00FFFF
03FFFF
03FF00
03E000
03F800
00FC00
007E00
001F00
000F80
000780
0007C0
0003E0
0001E0
0000F0
0003F0
0007F0
000FE0
003F80
007E00
00FC00
01F000
03E000
07C000
0F8000
1F0000
1E0000
3E0000
3C3FC0
7BFFC0
7FFFC0
7FF000
7F0000
3C0000
000000
000000
000000
000000
000000
000000
000000
000000
000000
000000
ENDCHAR

STARTCHAR CODE229
ENCODING 229
SWIDTH 451 0
DWIDTH 24 0
BBX 24 48 0 -6
BITMAP
000000
000000
000000
000000
000000
000000
000000
000000
000000
000000
000000
000000
0001C0
0003E0
000FE0
001FC0
003F00
007E00
00F800
01FC00
03FF00
03FF80
079FC0
0F83C0
0F01E0
1E01E0
1E00E0
1C00E0
1C00E0
1C00E0
1C01E0
1E01E0
1E03C0
0F8FC0
0FFF80
07FF00
03FE00
00F800
000000
000000
000000
000000
000000
000000
000000
000000
000000
000000
ENDCHAR

STARTCHAR CODE230
ENCODING 230
SWIDTH 451 0
DWIDTH 24 0
BBX 24 48 0 -6
BITMAP
000000
000000
000000
000000
000000
000000
000000
000000
000000
000000
000000
000000
000000
000000
000000
000000
000000
000000
000000
000000
070700
070700
070700
070700
070700
070F00
0F0E00
0F0E00
0F0E00
0E1E00
0E1E00
0E1C00
1E3CE0
1E3CE0
1F7FE0
1FFFE0
3FFFC0
3FE780
3C0000
380000
780000
780000
700000
700000
700000
000000
000000
000000
ENDCHAR

STARTCHAR CODE231
ENCODING 231
SWIDTH 451 0
DWIDTH 24 0
BBX 24 48 0 -6
BITMAP
000000
000000
000000
000000
000000
000000
000000
000000
000000
000000
000000
000000
000000
000000
000000
000000
000000
000000
000000
000000
000000
000FF0
03FFF0
03FFF0
03FC00
001C00
001C00
003C00
003800
003800
007800
007000
00F000
00E000
00F700
00FF00
007F00
003E00
000000
000000
000000
000000
000000
000000
000000
000000
000000
000000
ENDCHAR

STARTCHAR CODE232
ENCODING 232
SWIDTH 451 0
DWIDTH 24 0
BBX 24 48 0 -6
BITMAP
000000
000000
000038
000038
000078
00FFF0
03FFF0
07FFF0
0FBDF8
0F7DF8
06F9F8
00F3BC
01E39C
03E39C
03C71C
07871C
07871C
0F0E1C
0F0E1C
0E0E1C
1E1C3C
1E1C3C
1C1C38
1C3838
3C3878
3C3870
3870F0
3870F0
3871E0
38E1E0
38E3C0
38E3C0
39C780
39CF80
3DDF00
3FFE00
1FFC00
1FF800
0FF000
07C000
078000
070000
070000
000000
000000
000000
000000
000000
ENDCHAR

STARTCHAR CODE233
ENCODING 233
SWIDTH 451 0
DWIDTH 24 0
BBX 24 48 0 -6
BITMAP
000000
000000
000000
000000
000000
00FF80
03FFE0
07FFF0
0FBDF8
0F7C78
06F838
00F03C
01E01C
03E01C
03C01C
07801C
07801C
0F001C
0F001C
0E001C
1FF83C
1FFFFC
1FFFF8
1C0FF8
3C0078
3C0070
3800F0
3800F0
3801E0
3801E0
3803C0
3803C0
380780
380F80
3C1F00
3E7E00
1FFC00
1FF800
0FF000
03C000
000000
000000
000000
000000
000000
000000
000000
000000
ENDCHAR

STARTCHAR CODE234
ENCODING 234
SWIDTH 451 0
DWIDTH 24 0
BBX 24 48 0 -6
BITMAP
000000
000000
000000
000000
000000
001F80
00FFE0
03FFF0
07F1F8
0FC07C
0F003E
1E001E
1E000F
3C000F
3C0007
380007
780007
780007
700007
700007
700007
700007
70000F
70000F
70000E
70001E
78001E
38003C
38007C
3C01F8
1C03F0
1E07E0
0F0F80
0F0F00
079E00
039E00
039CF8
F39FF8
FF9FF8
FF8F80
1F0000
000000
000000
000000
000000
000000
000000
000000
ENDCHAR

STARTCHAR CODE235
ENCODING 235
SWIDTH 451 0
DWIDTH 24 0
BBX 24 48 0 -6
BITMAP
000000
000000
000000
000000
0007E0
001FF8
003FFC
003E3C
007C1E
00780E
00780E
007800
007800
003C00
003C00
001E00
001E00
000F00
00FF00
03FF00
07FF80
0FCF80
1F0780
1E0780
3C0380
3C0380
380380
780380
780380
700780
700780
700700
700F00
780F00
781E00
3C7E00
3FFC00
1FF800
0FE000
000000
000000
000000
000000
000000
000000
000000
000000
000000
ENDCHAR

STARTCHAR CODE236
ENCODING 236
SWIDTH 451 0
DWIDTH 24 0
BBX 24 48 0 -6
BITMAP
000000
000000
000000
000000
000000
000000
000000
000000
000000
000000
000000
000000
03E03C
07F0FE
0FF9FF
0FFBFF
1E7BC7
1E3F87
1C3F87
1C3F07
3C3F0F
3C3F0F
387E0F
787E0E
78FE1E
70FE1E
71EE3C
7BEFFC
7FCFF8
3F87F0
1E03C0
000000
000000
000000
000000
000000
000000
000000
000000
000000
000000
000000
000000
000000
000000
000000
000000
000000
ENDCHAR

STARTCHAR CODE237
ENCODING 237
SWIDTH 451 0
DWIDTH 24 0
BBX 24 48 0 -6
BITMAP
000000
000000
000000
000000
000000
000000
000000
000000
000000
000000
000000
000000
000000
000000
000000
000000
000000
000000
000000
000000
000000
000EE0
003FE0
007FE0
00FFC0
00F780
01EF80
01FF80
01FF80
03FB80
03FB80
03F780
03E780
03EF00
03FF00
07FE00
0FFC00
0F7000
0E0000
000000
000000
000000
000000
000000
000000
000000
000000
000000
ENDCHAR

STARTCHAR CODE238
ENCODING 238
SWIDTH 451 0
DWIDTH 24 0
BBX 24 48 0 -6
BITMAP
000000
000000
000000
000000
000000
000000
000000
000000
000000
000000
000000
000000
000000
000000
000000
000000
000000
000000
000000
000000
003C00
00FE00
01FF00
01E780
01C380
01E180
01F000
03FC00
07FC00
079C00
0F0000
0F0000
0E0000
0F0300
078F00
07FF00
03FE00
00F800
000000
000000
000000
000000
000000
000000
000000
000000
000000
000000
ENDCHAR

STARTCHAR CODE239
ENCODING 239
SWIDTH 451 0
DWIDTH 24 0
BBX 24 48 0 -6
BITMAP
000000
000000
000000
000000
000000
003FC0
00FFF0
01FFF8
03F8FC
03E03E
07C01E
07800E
07800F
070007
070007
0F0007
0F0007
0F0007
0E0007
0E0007
0E0007
0E000F
1E000F
1E000E
1E000E
1C001E
1C001E
1C001C
3C003C
3C003C
3C0078
380078
3800F0
3800F0
3801E0
7803E0
7803C0
780780
700F80
700F00
700E00
000000
000000
000000
000000
000000
000000
000000
ENDCHAR

STARTCHAR CODE240
ENCODING 240
SWIDTH 451 0
DWIDTH 24 0
BBX 24 48 0 -6
BITMAP
000000
000000
000000
000000
000000
000000
000000
000000
000000
000000
000000
000000
000000
000000
000000
000000
000000
000000
000000
000000
000000
000000
01FF80
1FFFF0
1FFFF0
1F00F0
000000
01FF80
1FFFF0
1FFFF0
1F00F0
000000
01FF80
1FFFF0
1FFFF0
1F00F0
000000
000000
000000
000000
000000
000000
000000
000000
000000
000000
000000
000000
ENDCHAR

STARTCHAR CODE241
ENCODING 241
SWIDTH 451 0
DWIDTH 24 0
BBX 24 48 0 -6
BITMAP
000000
000000
000000
000000
000000
000000
000000
000000
000000
000000
000000
000000
000000
000000
001C00
001C00
001C00
003C00
003800
003800
003800
01FFC0
1FFFF8
1FFFF8
1F3878
003800
003C00
001C00
001C00
001C00
001C00
000000
000000
00FFC0
0FFFF8
0FFFF8
0F8078
000000
000000
000000
000000
000000
000000
000000
000000
000000
000000
000000
ENDCHAR

STARTCHAR CODE242
ENCODING 242
SWIDTH 451 0
DWIDTH 24 0
BBX 24 48 0 -6
BITMAP
000000
000000
000000
000000
000000
000000
000000
000000
000000
000000
000000
000000
000000
000000
000380
000380
0003C0
0001C0
0001C0
0001C0
0001E0
0000E0
0000E0
0000E0
0003E0
0007E0
000FC0
003F00
007E00
00F800
01F000
01E000
01C000
00FFE0
0FFFF8
0FFFF8
0F8038
000000
000000
000000
000000
000000
000000
000000
000000
000000
000000
000000
ENDCHAR

STARTCHAR CODE243
ENCODING 243
SWIDTH 451 0
DWIDTH 24 0
BBX 24 48 0 -6
BITMAP
000000
000000
000000
000000
000000
000000
000000
000000
000000
000000
000000
000000
000000
000000
0000E0
0003E0
0007E0
001FC0
007F00
01FE00
01F800
01E000
01C000
01C000
01C000
01E000
00E000
00E000
00F000
00F000
007000
007800
003800
00FFE0
0FFFF8
0FFFF8
0F8038
000000
000000
000000
000000
000000
000000
000000
000000
000000
000000
000000
ENDCHAR

STARTCHAR CODE244
ENCODING 244
SWIDTH 451 0
DWIDTH 24 0
BBX 24 48 0 -6
BITMAP
000000
000000
000000
000000
000000
000000
000000
007C00
007C00
00FC00
00FC00
00FC00
00C000
00C000
00C000
00C000
00C000
01C000
01C000
01C000
00C000
00C000
00C000
00C000
00E000
00E000
00E000
00E000
00E000
00E000
00E000
00E000
00E000
00F000
00F000
00F000
007000
007000
007000
007000
007000
007000
007800
007800
007800
007800
003800
003800
ENDCHAR

STARTCHAR CODE245
ENCODING 245
SWIDTH 451 0
DWIDTH 24 0
BBX 24 48 0 -6
BITMAP
003800
003800
003800
003800
003800
003800
003C00
003C00
001C00
001C00
001C00
001C00
001C00
001C00
001C00
001C00
001C00
000C00
000E00
000E00
000E00
000E00
000E00
000E00
000E00
000E00
000E00
000600
000600
000600
000600
000600
000600
007600
00FE00
00FE00
00FC00
007800
000000
000000
000000
000000
000000
000000
000000
000000
000000
000000
ENDCHAR

STARTCHAR CODE246
ENCODING 246
SWIDTH 451 0
DWIDTH 24 0
BBX 24 48 0 -6
BITMAP
000000
000000
000000
000000
000000
000000
000000
000000
000000
000000
000000
000000
000000
001E00
001E00
003E00
003E00
003C00
000000
000000
000000
01FFC0
1FFFF0
1FFFF0
1F0070
000000
000000
000000
007800
007800
00F800
00F800
00F000
000000
000000
000000
000000
000000
000000
000000
000000
000000
000000
000000
000000
000000
000000
000000
ENDCHAR

STARTCHAR CODE247
ENCODING 247
SWIDTH 451 0
DWIDTH 24 0
BBX 24 48 0 -6
BITMAP
000000
000000
000000
000000
000000
000000
000000
000000
000000
000000
000000
000000
000000
000000
000000
000000
000000
000000
00F000
01FC30
03FE70
039FF0
030FE0
0003C0
00F000
01FC30
03FE70
039FF0
030FE0
0003C0
000000
000000
000000
000000
000000
000000
000000
000000
000000
000000
000000
000000
000000
000000
000000
000000
000000
000000
ENDCHAR

STARTCHAR CODE248
ENCODING 248
SWIDTH 451 0
DWIDTH 24 0
BBX 24 48 0 -6
BITMAP
000000
000000
03E000
07F000
0F7800
0E3800
1C1C00
3C1C00
381C00
301C00
383800
3CF800
1FF000
0FC000
000000
000000
000000
000000
000000
000000
000000
000000
000000
000000
000000
000000
000000
000000
000000
000000
000000
000000
000000
000000
000000
000000
000000
000000
000000
000000
000000
000000
000000
000000
000000
000000
000000
000000
ENDCHAR

STARTCHAR CODE249
ENCODING 249
SWIDTH 451 0
DWIDTH 24 0
BBX 24 48 0 -6
BITMAP
000000
000000
000000
000000
000000
000000
000000
000000
000000
000000
000000
000000
000000
000000
000000
000000
003C00
007F00
00FF80
00FF80
01FFC0
03FFC0
03FFC0
03FFC0
03FFC0
03FF80
01FF80
00FF00
003C00
000000
000000
000000
000000
000000
000000
000000
000000
000000
000000
000000
000000
000000
000000
000000
000000
000000
000000
000000
ENDCHAR

STARTCHAR CODE250
ENCODING 250
SWIDTH 451 0
DWIDTH 24 0
BBX 24 48 0 -6
BITMAP
000000
000000
000000
000000
000000
000000
000000
000000
000000
000000
000000
000000
000000
000000
000000
000000
000000
000000
003C00
007E00
007F00
00FF00
01FF00
01FF00
01FF00
01FE00
00FC00
000000
000000
000000
000000
000000
000000
000000
000000
000000
000000
000000
000000
000000
000000
000000
000000
000000
000000
000000
000000
000000
ENDCHAR

STARTCHAR CODE251
ENCODING 251
SWIDTH 451 0
DWIDTH 24 0
BBX 24 48 0 -6
BITMAP
000FFF
000FFF
000E00
000E00
000E00
000E00
000E00
000E00
000E00
000E00
000E00
000E00
000E00
000E00
000E00
000E00
000E00
000E00
000E00
000E00
000E00
000E00
000E00
001E00
001C00
001C00
001C00
381C00
381C00
381C00
3C1C00
7C3C00
7C3800
7E3800
7E3800
0E3800
073800
077800
07F000
03F000
03F000
01F000
01E000
00E000
000000
000000
000000
000000
ENDCHAR

STARTCHAR CODE252
ENCODING 252
SWIDTH 451 0
DWIDTH 24 0
BBX 24 48 0 -6
BITMAP
000000
000000
0001C0
0073C0
0077C0
007FC0
00FFC0
00FF80
00FF80
01FF80
01F700
01E700
01E700
03C700
038700
038700
038700
038780
000380
0003C0
0001C0
000000
000000
000000
000000
000000
000000
000000
000000
000000
000000
000000
000000
000000
000000
000000
000000
000000
000000
000000
000000
000000
000000
000000
000000
000000
000000
000000
ENDCHAR

STARTCHAR CODE253
ENCODING 253
SWIDTH 451 0
DWIDTH 24 0
BBX 24 48 0 -6
BITMAP
000000
000000
001E00
007F80
00FFC0
01FBC0
01E1C0
01C3C0
0003C0
000780
000F80
001F00
003E00
007C00
00F800
00F000
01FFC0
01FFC0
01FFC0
01E000
000000
000000
000000
000000
000000
000000
000000
000000
000000
000000
000000
000000
000000
000000
000000
000000
000000
000000
000000
000000
000000
000000
000000
000000
000000
000000
000000
000000
ENDCHAR

STARTCHAR CODE254
ENCODING 254
SWIDTH 451 0
DWIDTH 24 0
BBX 24 48 0 -6
BITMAP
000000
000000
000000
000000
000000
000000
000000
000000
03FFC0
03FFC0
03FFC0
03FFC0
03FFC0
03FFC0
03FFC0
03FFC0
03FFC0
03FFC0
03FFC0
03FFC0
03FFC0
03FFC0
03FFC0
03FFC0
03FFC0
03FFC0
03FFC0
03FFC0
03FFC0
03FFC0
03FFC0
03FFC0
03FFC0
03FFC0
03FFC0
03FFC0
03FFC0
03FFC0
03FFC0
000000
000000
000000
000000
000000
000000
000000
000000
000000
ENDCHAR

STARTCHAR CODE255
ENCODING 255
SWIDTH 451 0
DWIDTH 24 0
BBX 24 48 0 -6
BITMAP
000000
000000
000000
000000
000000
000000
000000
000000
000000
000000
000000
000000
000000
000000
000000
000000
000000
000000
000000
000000
000000
000000
000000
000000
000000
000000
000000
000000
000000
000000
000000
000000
000000
000000
000000
000000
000000
000000
000000
000000
000000
000000
000000
000000
000000
000000
000000
000000
ENDCHAR
ENDFONT
